<svg width="500" height="325" viewBox="0 0 500 325" fill="none" xmlns="http://www.w3.org/2000/svg">
<g clip-path="url(#clip0_94_1479)">
<path d="M128.007 1.65518C126.952 3.37393 125.194 6.49891 123.046 10.5614C119.96 16.4208 108.827 31.1083 103.475 36.4208C99.53 40.3661 98.0456 41.3817 98.0456 40.0927C98.0456 39.5458 98.7487 37.163 100.819 30.4833L101.991 26.7724L101.874 16.4208C101.757 7.5536 101.678 6.06923 101.171 6.06923C100.858 6.06923 100.546 6.42079 100.467 6.85048C99.9206 10.6395 98.5143 16.538 97.2253 20.4833C95.0768 27.2411 90.9753 36.3036 89.6862 37.202C88.7096 37.8661 88.28 36.577 88.28 33.2567C88.28 27.3974 87.2643 21.4208 84.9596 13.5302C84.0612 10.4052 83.6706 11.1864 83.2018 17.4755C82.3815 27.7099 80.6237 37.2411 78.6315 42.0067C77.1471 45.6395 76.5612 45.7177 76.5612 42.3192C76.5612 35.6005 74.9987 24.2724 73.9831 23.413C73.28 22.8661 73.2409 23.0224 72.655 27.7489C71.405 38.0614 70.0378 43.5302 66.6393 51.7724C64.8815 55.9911 64.2175 56.7724 61.0534 58.2958C58.3971 59.5849 57.03 60.9911 54.6471 64.7411C53.7878 66.1474 52.4596 67.6708 51.5612 68.2567C48.0065 70.6786 45.1159 72.9052 44.4128 73.8817C43.8659 74.663 43.6706 75.5224 43.7096 77.2802L43.7487 79.6239L42.2643 80.2099C41.4831 80.5224 38.7096 81.3036 36.1315 81.8895C30.2721 83.2567 26.2096 83.3349 22.8893 82.1239C21.6393 81.6552 20.5456 81.2255 20.4675 81.1474C20.3893 81.0692 20.194 79.8583 20.0768 78.4911C19.9206 77.1239 19.6471 75.7567 19.4518 75.5224C18.6315 74.5067 16.6393 74.5458 14.2956 75.5614C11.5612 76.7724 11.4049 76.7724 8.27995 75.7958C5.38932 74.8974 1.63932 74.7802 0.584635 75.5614C-0.0403646 75.9911 -0.0794271 76.4208 0.115885 79.077C0.272135 80.8739 0.779948 83.1005 1.40495 84.5849C2.57682 87.5536 2.4987 87.0067 2.14714 93.9599C1.8737 99.1942 2.14714 101.577 3.00651 101.577C3.20182 101.577 3.55339 100.483 3.78776 99.1552C4.33464 96.3817 6.40495 92.0067 7.57682 91.1864C9.64714 89.7411 12.6549 91.0692 12.5768 93.413C12.3424 100.757 12.3815 101.811 13.2799 104.077C14.2565 106.655 14.6471 106.499 15.0768 103.374C15.3112 101.499 16.6003 97.3583 17.6159 95.2099C18.2018 93.9208 19.53 93.4911 21.0925 94.1552C22.4596 94.7411 24.7643 94.8192 27.5378 94.3895C28.944 94.1552 29.9596 94.2333 31.2487 94.702C33.4362 95.4833 35.1159 95.4833 37.4596 94.7411C40.2331 93.8817 50.9753 93.1786 53.0456 93.7255C53.9831 93.9989 54.8034 94.4286 54.9206 94.7411C55.2721 95.6005 53.1237 99.1942 51.2878 100.796C49.2175 102.593 43.8659 104.468 38.9831 105.093C35.4675 105.522 29.6081 107.046 27.8112 107.983C27.2253 108.296 24.569 110.327 21.8737 112.475C17.5768 115.991 16.444 116.655 11.7174 118.686C8.82682 119.975 5.6237 121.304 4.56901 121.655C2.53776 122.436 2.14714 123.061 3.82682 123.061C5.6237 123.061 12.1081 121.89 13.4362 121.343C14.1393 121.069 17.5768 118.999 21.1315 116.811C24.6471 114.585 28.319 112.554 29.2956 112.241C30.2721 111.929 32.7331 111.538 34.7643 111.343C39.6471 110.874 45.78 109.39 48.4362 108.061C52.655 105.952 56.5612 102.358 59.4909 97.827C60.6628 96.0692 60.8971 95.913 62.3034 95.913C63.7096 95.913 63.8268 95.9911 64.1784 97.2802C64.6081 98.9989 64.3346 101.694 63.5925 102.866C63.2409 103.335 61.4831 104.663 59.6471 105.796C57.8112 106.89 54.8034 109.233 52.9284 110.952C51.0925 112.671 48.7878 114.507 47.8503 115.093C45.6237 116.382 39.2956 118.569 35.5456 119.35C33.944 119.663 32.2253 120.015 31.7956 120.132C31.3268 120.249 30.2331 120.913 29.3737 121.616C27.694 123.022 26.8346 123.413 23.2409 124.311C19.8034 125.171 15.819 126.772 13.3971 128.218C11.0924 129.624 7.65495 132.436 7.96745 132.71C8.04557 132.788 8.98307 133.022 10.0378 133.14C12.2643 133.491 12.2643 133.608 10.819 137.71C9.84245 140.444 9.21745 144.546 9.80339 144.546C9.95964 144.546 10.6237 143.608 11.2878 142.436C12.3034 140.6 14.569 138.296 15.3503 138.296C15.8581 138.296 16.4049 139.897 16.8346 142.632C17.6549 148.218 19.1784 153.257 21.7956 159.038C23.5925 162.983 24.4909 163.1 23.2018 159.233C22.2643 156.538 22.6159 142.046 23.6315 139.546C24.0221 138.53 24.53 137.905 24.8425 137.983C25.155 138.061 26.3268 139.311 27.4596 140.835C29.2956 143.296 32.3815 146.108 33.2018 146.108C33.3971 146.108 32.7721 144.468 31.7956 142.475C30.6237 139.975 30.0378 138.179 29.9987 136.89C29.8815 134.663 29.4128 134.78 35.5456 135.6C41.8737 136.421 49.6862 135.405 47.655 133.999C47.3425 133.804 46.3659 133.413 45.5065 133.179C41.9128 132.202 37.694 130.796 37.2253 130.405C36.4831 129.819 36.6003 128.608 37.4206 128.218C37.7721 128.022 39.8425 127.749 41.9909 127.593C44.9596 127.397 46.9128 127.007 50.3112 125.913C54.4128 124.546 55.6628 123.843 53.944 123.843C52.8503 123.843 51.2487 122.436 51.7565 121.929C52.4206 121.265 59.7253 118.413 62.8893 117.593C64.4909 117.163 66.7956 116.46 67.9675 116.03C69.1393 115.6 70.155 115.249 70.194 115.249C70.2721 115.249 70.3112 114.936 70.3112 114.546C70.3112 114.116 69.7643 113.491 68.944 113.061C68.2018 112.671 67.5768 112.085 67.5768 111.733C67.5768 111.382 68.944 110.405 70.819 109.429C72.5768 108.452 74.9596 106.89 76.1315 105.952C77.3034 105.015 78.9831 103.921 79.9206 103.53C82.03 102.593 82.3815 102.046 81.2878 101.225C80.7409 100.796 80.5065 100.327 80.6628 99.9364C80.819 99.5849 84.0221 97.9833 88.0065 96.2645C94.1003 93.6864 96.0143 92.6317 101.483 88.9208C104.96 86.577 107.811 84.4677 107.811 84.2724C107.811 84.077 107.499 84.038 107.147 84.1942C105.663 84.7802 99.2956 86.2645 97.1862 86.538C95.1159 86.8114 94.9206 86.7724 94.9206 86.0692C94.9206 85.5614 96.0925 84.4286 98.3971 82.7099C102.069 79.9755 103.749 78.2177 103.241 77.7099C103.046 77.5145 101.678 77.827 100.194 78.3739C97.9284 79.1942 96.405 79.4286 91.2096 79.702C81.9909 80.1708 81.4831 79.5067 87.8503 75.4442C90.1159 73.9989 91.9909 72.6708 92.069 72.4364C92.1471 72.202 91.4831 71.7333 90.6237 71.3817C89.7643 71.0692 89.0612 70.5224 89.0612 70.2099C89.0612 69.1552 94.1003 65.288 97.9284 63.3349C99.1784 62.7099 101.522 61.8114 103.124 61.3427C108.397 59.8583 108.983 59.4677 107.421 58.5302C106.561 57.9833 106.366 56.577 107.147 55.952C108.007 55.2489 113.397 54.3114 119.022 53.9208C125.467 53.452 128.983 52.788 133.592 51.1474C145.897 46.7333 148.28 46.3036 159.764 46.3817C169.882 46.4208 172.46 46.7724 177.655 48.8817C188.671 53.2958 199.764 66.7724 202.421 78.9989C203.124 82.3192 203.28 84.3114 203.28 90.2489C203.319 97.0849 203.241 97.6317 202.264 100.6C199.374 109.077 185.272 128.022 171.874 141.421C164.803 148.491 153.007 161.147 150.507 164.311C149.491 165.601 147.342 168.53 145.741 170.835C143.944 173.491 142.616 175.015 142.186 175.015C141.796 175.015 140.624 174.429 139.53 173.686C138.475 172.944 136.561 172.046 135.311 171.655C132.421 170.835 131.796 170.444 130.78 168.843C129.764 167.202 129.725 164.116 130.663 162.632C131.053 162.085 132.616 160.249 134.178 158.569C136.952 155.6 138.671 152.475 138.671 150.366C138.671 148.608 140.663 146.186 143.866 144.116C145.585 143.022 146.874 140.6 146.874 138.53C146.874 135.913 147.264 135.64 150.35 135.874L153.046 136.069L154.842 133.765C155.819 132.475 158.592 128.804 160.936 125.561C163.866 121.499 165.897 119.155 167.342 118.061C169.491 116.421 170.819 114.272 170.819 112.515C170.819 111.968 170.663 110.288 170.507 108.725C170.233 106.265 170.311 105.718 171.014 104.35C171.717 103.061 171.796 102.554 171.444 101.694C170.78 99.9755 169.96 99.2724 166.327 97.4364C163.202 95.8739 162.655 95.7177 159.999 95.7177C158.397 95.7177 156.171 95.913 155.116 96.1474C153.046 96.577 151.014 97.8661 151.366 98.4911C151.522 98.6864 153.007 98.8427 154.725 98.8427C157.85 98.8427 159.452 99.3114 161.053 100.718C161.952 101.499 161.913 102.085 160.741 103.452C159.374 105.093 159.491 106.655 161.132 109.116C161.874 110.21 162.499 111.304 162.499 111.46C162.499 111.655 161.405 112.866 160.077 114.194C158.71 115.522 155.975 118.96 153.983 121.772C151.952 124.624 150.155 127.046 149.96 127.163C149.335 127.593 147.382 126.225 146.874 125.015C146.483 124.077 146.444 122.866 146.717 120.015C147.186 114.819 147.108 108.179 146.522 107.124C146.249 106.655 145.35 105.796 144.491 105.249C143.632 104.702 142.616 103.725 142.264 103.061C140.311 99.5067 137.655 97.9442 134.921 98.8427C134.178 99.1161 133.163 99.8192 132.694 100.483C132.225 101.147 130.78 102.163 129.491 102.788C125.585 104.624 122.85 107.905 121.835 111.85C121.6 112.866 121.053 114.35 120.663 115.171C119.842 116.694 119.686 117.983 120.311 117.983C120.507 117.983 121.6 116.694 122.772 115.132C124.96 112.163 128.163 108.999 128.944 108.999C129.217 108.999 130.077 109.702 130.858 110.561C132.03 111.811 132.577 112.124 133.671 112.124C134.491 112.124 135.467 112.475 136.092 112.944C137.069 113.686 137.108 113.921 137.108 117.124C137.108 120.132 137.264 120.835 138.28 122.944C139.647 125.757 140.311 128.686 139.842 129.936C139.296 131.343 138.358 131.616 135.741 131.03C131.014 129.936 130.975 129.936 129.569 130.835C127.616 132.046 125.233 131.929 122.616 130.522C120.233 129.233 116.014 128.257 115.116 128.765C114.764 128.96 114.1 129.702 113.592 130.444C113.007 131.343 112.147 131.968 111.092 132.319C109.022 133.022 107.03 134.936 105.858 137.358C105.155 138.843 104.921 140.132 104.803 143.179C104.53 149.272 106.092 153.179 106.991 148.765C107.889 144.546 110.975 139.468 112.616 139.468C113.202 139.468 113.827 140.015 114.569 141.225C115.194 142.202 116.092 143.1 116.6 143.218C117.811 143.53 119.686 142.866 121.874 141.421C123.358 140.405 123.983 140.249 126.171 140.249C127.694 140.249 129.608 139.936 130.858 139.507C134.1 138.374 136.561 138.1 136.835 138.804C137.303 140.054 133.866 143.569 130.624 145.249C128.788 146.186 125.975 149.116 125.233 150.874C124.921 151.577 124.413 153.725 124.061 155.64C123.749 157.554 123.202 159.39 122.889 159.741C122.538 160.093 121.444 160.718 120.428 161.069C119.374 161.46 117.967 162.085 117.264 162.515L116.014 163.296V167.944C116.014 173.218 115.975 173.179 119.413 174.311C122.967 175.522 127.655 178.843 128.671 180.796C128.944 181.382 129.569 183.921 130.077 186.46C131.132 191.616 130.975 193.374 129.1 197.983C128.553 199.311 128.124 200.991 128.124 201.733C128.124 202.866 128.319 203.101 129.413 203.569C131.639 204.429 132.85 205.483 132.733 206.421C132.616 207.163 132.382 207.241 129.686 207.241H126.757L126.092 208.608C125.702 209.39 125.389 210.874 125.389 212.007C125.389 214.39 125.389 214.39 122.03 213.335C120.585 212.866 117.382 212.397 113.944 212.163C108.592 211.811 105.858 211.147 105.858 210.249C105.858 210.054 104.647 208.726 103.124 207.202C100.116 204.233 97.3034 202.476 90.819 199.546C88.4753 198.491 86.0143 197.124 85.4284 196.577C83.0065 194.311 82.3034 191.538 83.0846 187.476C83.7487 184.038 83.5534 182.28 81.9518 177.827C80.7018 174.194 80.7018 173.53 82.1081 169.351C82.8893 167.046 82.8893 166.89 82.2253 161.147C81.8737 157.905 81.405 154.819 81.1706 154.233C80.6237 152.827 77.8112 151.421 76.2096 151.772C75.5456 151.89 74.6081 152.358 74.0612 152.788C71.6784 154.663 70.819 154.78 63.7487 154.077C57.7721 153.491 57.069 153.491 55.7409 154.077C53.944 154.819 53.0456 156.655 53.0456 159.507C53.0846 160.561 52.7331 162.319 52.2643 163.452C50.8581 166.968 50.3893 169.272 50.3893 172.944C50.3893 176.538 50.5846 177.749 51.1706 177.749C51.3659 177.749 51.7175 177.085 51.9909 176.265C52.2253 175.483 52.8503 173.999 53.3581 172.983C53.8659 171.968 54.2956 170.796 54.2956 170.405C54.2956 169.272 56.6393 164.858 57.2253 164.858C57.4987 164.858 58.0846 165.288 58.5143 165.835C59.4518 167.007 60.194 167.085 61.0925 166.069C61.5612 165.561 62.5378 165.249 64.3737 165.093C65.819 164.936 68.5534 164.468 70.4675 163.999C73.8659 163.14 73.905 163.14 74.4909 163.882C75.1159 164.78 74.9596 166.186 73.7487 169.741C72.7331 172.71 72.7721 173.882 74.0221 177.163C74.569 178.608 74.9987 180.054 74.9987 180.327C74.9987 181.226 73.5534 180.952 70.7018 179.507C66.7956 177.554 66.1706 177.632 62.9675 180.64L60.3112 183.179L55.7018 183.843C53.1628 184.233 50.819 184.741 50.4675 185.015C49.9596 185.405 49.8034 186.147 49.8034 188.569C49.7643 190.327 49.4909 192.632 49.0612 193.96C48.2018 196.968 48.1237 203.218 48.9831 205.288C49.8034 207.163 50.3893 206.694 50.3893 204.155C50.3893 201.772 51.5612 196.929 52.4987 195.522C53.2409 194.39 53.8659 194.311 55.5456 195.171C56.6784 195.757 56.7565 195.718 57.694 194.858C58.2409 194.351 58.905 193.491 59.2175 192.866C59.7253 191.968 59.9987 191.811 61.5612 191.811C63.1237 191.811 63.5925 191.577 65.2721 190.093C68.7878 186.929 72.694 186.851 73.2409 189.936C73.3581 190.64 73.5925 192.007 73.7878 192.983C74.2175 195.405 73.7096 196.499 71.6784 197.788C70.7409 198.413 69.1003 199.663 68.0456 200.601C66.3659 202.124 65.8581 202.319 63.319 202.71C59.9596 203.14 57.8503 204.39 56.8737 206.382C55.6237 209.038 55.6628 209.858 57.1471 211.772C58.2409 213.257 58.5534 213.999 58.7487 216.265C59.1393 219.858 59.8815 222.397 61.4831 225.21C62.3425 226.772 63.0456 227.593 63.5925 227.671C64.6081 227.827 64.6081 227.866 63.7878 224.858C63.4362 223.53 63.1628 220.913 63.1237 218.999C63.1237 215.835 63.2018 215.483 64.0221 214.819C64.6471 214.311 65.5456 214.077 66.9518 214.077C69.3737 214.077 69.8425 213.647 71.9909 209.78C73.5143 207.007 74.8815 205.522 76.9518 204.507C78.0456 203.921 78.8659 203.882 81.6003 204.077C85.9362 204.39 87.1862 205.21 89.53 209.311C91.0534 211.968 94.6081 215.835 96.8346 217.28C98.1628 218.101 99.0612 218.374 100.507 218.374C103.046 218.374 103.71 218.804 104.921 221.226C109.022 229.39 114.686 234.819 122.186 237.905C123.827 238.608 125.467 239.39 125.78 239.702C126.21 240.132 126.366 241.265 126.366 244.468C126.366 248.374 126.444 248.804 127.538 250.796C129.061 253.608 130.116 253.843 131.249 251.577C132.264 249.585 135.038 246.499 135.819 246.499C136.249 246.499 136.327 246.694 136.132 247.163C134.296 251.538 133.866 253.491 133.827 257.632C133.788 261.46 133.905 262.124 134.725 263.686C137.772 269.468 142.85 274.663 144.296 273.491C144.569 273.257 144.999 271.147 145.272 268.804C145.819 264.194 146.757 261.968 147.967 262.202C148.983 262.397 148.983 263.882 148.046 266.851C145.35 275.21 150.077 283.413 159.882 287.358C161.639 288.061 163.163 288.569 163.358 288.452C163.514 288.335 163.671 287.593 163.671 286.811C163.71 285.171 164.686 279.351 164.999 279.038C165.116 278.921 165.467 278.999 165.741 279.272C166.092 279.546 166.405 281.03 166.561 283.53C166.913 288.413 167.655 290.093 170.35 292.124C173.983 294.819 177.069 296.03 182.538 296.929C185.819 297.436 188.397 297.046 188.788 295.952C188.905 295.64 188.514 294.39 187.889 293.101C186.327 289.976 186.327 285.952 187.889 285.952C188.436 285.952 188.788 286.538 189.257 288.179C190.585 292.749 193.397 296.069 196.561 296.851C198.827 297.397 205.233 297.397 208.514 296.89C211.561 296.382 215.038 294.897 215.624 293.804C216.014 293.061 215.819 292.71 214.061 290.718C211.522 287.944 211.053 286.968 211.717 286.147C211.991 285.835 212.342 285.561 212.499 285.561C212.655 285.561 213.553 286.616 214.569 287.866C216.678 290.64 219.022 292.085 222.147 292.632L224.413 293.061L231.053 289.585C236.014 287.007 237.733 285.913 237.811 285.288C237.889 284.819 237.342 283.804 236.522 282.827C234.257 280.093 235.311 278.374 238.319 279.936C240.272 280.913 242.928 280.835 244.569 279.663C248.124 277.202 253.124 272.944 254.413 271.265C256.327 268.804 256.522 267.866 255.585 265.874C254.647 263.96 254.803 263.296 256.132 263.296C258.514 263.296 261.522 260.757 265.741 255.132C268.514 251.421 270.233 248.101 272.342 242.436C275.155 234.897 278.71 224.116 279.686 220.327C280.585 216.655 283.007 209.116 283.553 208.257C284.061 207.476 284.569 207.827 286.014 209.976C286.717 211.03 287.772 212.163 288.358 212.476C289.296 213.022 289.608 212.983 291.874 212.202C293.241 211.733 295.311 211.265 296.483 211.147C299.999 210.757 300.311 210.64 301.522 208.882C303.163 206.499 304.96 204.819 306.053 204.624C308.007 204.233 310.155 206.108 310.155 208.179C310.155 209.624 308.866 212.554 307.772 213.608C307.147 214.194 304.999 215.679 303.007 216.929C298.71 219.624 296.796 221.382 295.702 223.647C294.803 225.522 294.569 226.929 293.358 236.968C292.928 240.64 292.147 245.366 291.6 247.515C290.155 253.569 282.655 272.28 281.171 273.569C279.725 274.819 275.78 274.116 275.467 272.593C275.389 272.202 275.975 270.522 276.717 268.843C277.499 267.124 278.124 265.366 278.124 264.936C278.124 264.038 276.757 262.905 275.741 262.905C275.389 262.905 274.452 262.358 273.632 261.733C272.811 261.069 271.796 260.561 271.405 260.561C270.975 260.561 269.725 261.343 268.632 262.28C267.499 263.179 265.624 264.585 264.413 265.366C261.6 267.124 258.866 271.147 256.717 276.655C254.803 281.655 253.475 287.515 254.296 287.515C254.491 287.515 255.624 285.601 256.835 283.257C259.178 278.765 263.944 272.515 265.311 272.046C266.757 271.616 267.303 272.827 267.03 276.069C266.835 278.647 266.874 278.96 267.772 280.054C268.827 281.265 271.639 282.436 273.632 282.436C276.21 282.436 277.46 284.663 275.78 286.343C275.35 286.772 274.491 287.124 273.905 287.124C270.389 287.124 266.014 290.21 266.014 292.632C266.014 294.507 266.444 294.976 268.553 295.366C271.171 295.835 271.444 296.186 271.405 298.765C271.405 299.976 271.6 301.772 271.835 302.749C273.007 307.749 272.225 310.288 266.678 319.311C264.257 323.218 264.803 323.257 269.725 319.546C271.757 318.022 274.022 316.069 274.764 315.171C276.366 313.296 277.577 310.366 277.967 307.358C278.28 304.976 278.592 304.468 280.272 303.765C280.936 303.491 281.952 302.671 282.577 301.968C283.632 300.718 283.632 300.561 283.397 297.476C283.085 293.96 283.436 292.827 285.311 291.069C286.522 289.936 286.717 290.093 287.733 292.749C288.475 294.819 290.389 296.929 292.186 297.671C293.241 298.101 293.514 298.022 295.194 296.968C297.928 295.21 299.647 294.585 300.624 294.936C301.991 295.444 302.655 296.772 302.46 298.374C302.382 299.155 302.577 300.874 302.889 302.163C303.749 305.327 303.671 309.155 302.733 312.163C302.069 314.351 301.171 316.108 297.421 322.554C296.327 324.429 297.03 324.546 299.1 322.827C305.194 317.866 308.592 312.476 310.038 305.679C310.546 303.257 310.819 302.71 312.655 300.796C315.233 298.101 316.014 296.616 316.014 294.468C316.014 291.929 314.96 290.21 313.007 289.585C311.717 289.116 311.249 288.726 310.585 287.358C310.155 286.421 309.257 285.21 308.553 284.624L307.303 283.569L300.389 283.647C294.139 283.726 293.319 283.686 292.147 282.983C290.272 281.89 289.296 279.702 289.296 276.577C289.296 274.351 289.491 273.647 290.702 271.499C291.444 270.093 292.499 267.71 292.967 266.226C293.475 264.702 294.96 261.186 296.288 258.413C298.866 253.061 301.132 247.749 301.952 245.132C302.225 244.272 303.085 242.515 303.905 241.226C306.21 237.554 307.577 234.507 308.983 230.288C310.428 225.835 312.342 221.968 314.139 219.78C315.858 217.671 319.413 215.483 321.991 214.897C325.585 214.116 325.819 212.983 322.655 211.538C321.796 211.147 321.092 210.64 321.092 210.366C321.092 208.179 331.835 203.53 336.991 203.53C338.202 203.53 338.671 203.374 338.592 203.061C338.475 202.749 336.014 202.124 332.616 201.499C329.452 200.952 326.678 200.288 326.444 200.054C325.663 199.272 326.639 198.413 330.936 196.343C335.311 194.233 340.702 192.593 343.319 192.593C345.077 192.593 346.053 192.085 345.272 191.577C343.28 190.327 340.546 189.78 334.921 189.585C330.038 189.39 328.671 189.468 327.147 190.015C324.764 190.796 324.374 190.796 324.061 189.976C323.905 189.585 324.296 188.608 325.155 187.358C325.858 186.265 327.069 184.311 327.772 183.022C328.475 181.733 329.764 179.897 330.663 178.882C332.616 176.772 334.569 173.921 334.257 173.608C333.71 173.022 331.014 175.249 324.647 181.499C320.819 185.21 317.499 188.296 317.264 188.296C316.561 188.296 316.288 187.515 315.663 183.452C315.311 181.343 314.842 179.507 314.569 179.429C314.296 179.311 313.983 180.288 313.671 182.046C313.007 186.03 311.21 189.351 308.866 190.913C306.483 192.515 304.803 192.983 301.561 192.983C298.866 192.983 296.405 192.124 295.233 190.796C294.842 190.366 294.178 189.155 293.71 188.101C291.405 182.866 294.882 176.03 302.46 170.796C305.936 168.413 307.382 167.671 312.186 165.874C321.444 162.436 329.921 161.108 336.249 162.124C347.772 163.999 356.757 170.327 361.522 179.897C363.592 183.999 364.217 186.89 363.983 191.226C363.827 193.96 363.592 194.78 362.108 197.671C358.475 204.78 352.772 212.163 344.882 219.858C341.874 222.788 338.475 226.421 337.342 227.944C333.085 233.569 330.507 240.21 329.452 248.179C327.811 260.64 331.483 269.858 340.858 276.772C349.96 283.491 358.28 285.288 370.233 283.022C376.132 281.89 384.178 278.608 389.061 275.288C391.444 273.686 396.6 268.647 398.358 266.226C399.139 265.132 400.975 262.905 402.382 261.265C407.616 255.171 409.374 252.085 412.225 243.96C415.741 234.077 417.577 225.718 418.905 213.491C419.491 208.53 421.288 199.194 422.499 194.976C424.061 189.546 428.163 183.296 432.499 179.741C435.975 176.89 435.975 176.265 432.538 176.108C430.116 175.991 429.882 175.913 429.764 175.093C429.491 173.257 437.538 163.686 443.085 159.272C445.077 157.671 448.163 155.015 449.999 153.296C452.343 151.147 454.999 149.272 458.71 147.085C461.796 145.288 463.905 143.843 463.671 143.608C463.514 143.452 461.757 143.179 459.843 143.061C455.507 142.827 451.639 143.608 447.85 145.522C444.686 147.124 444.53 147.163 444.53 146.108C444.53 144.546 445.663 143.1 450.624 138.296C458.085 131.108 462.069 128.335 471.327 123.804C478.749 120.21 480.78 119.35 484.569 118.374C488.827 117.28 487.772 116.421 482.186 116.382C479.413 116.382 477.186 116.577 475.78 116.968C474.608 117.319 472.499 117.788 471.093 117.983C468.358 118.413 464.178 119.663 462.421 120.561C460.936 121.343 460.546 121.265 460.546 120.093C460.546 118.686 468.475 110.874 474.218 106.577C482.108 100.718 487.108 97.9442 495.702 94.5458C497.538 93.8427 499.296 93.0224 499.608 92.7099C500.116 92.202 499.921 92.163 498.046 92.3974C488.241 93.5302 479.608 96.6161 471.678 101.733C465.507 105.757 454.53 115.171 451.874 118.725C450.389 120.718 449.843 120.054 450.116 116.655C450.428 113.061 450.78 112.163 454.921 103.843C456.796 100.015 458.202 96.7724 458.046 96.6161C457.616 96.1864 452.733 101.538 451.132 104.194C450.389 105.405 448.827 107.866 447.616 109.741C443.671 115.796 441.171 121.694 439.139 129.741C438.358 132.788 437.85 134.194 437.46 134.194C436.6 134.194 436.561 131.03 437.303 124.429C438.28 115.679 438.124 115.288 435.585 120.522C431.561 128.804 428.319 137.319 425.936 145.718C425.155 148.413 424.413 150.757 424.218 150.952C423.475 151.694 422.968 147.827 423.163 143.452C423.28 141.069 423.28 139.077 423.202 139.077C422.928 139.077 420.35 144.702 419.452 147.28C418.241 150.796 416.874 155.835 416.21 159.546C415.858 161.46 415.389 163.491 415.155 164.038C414.608 165.444 413.71 176.226 413.671 181.655C413.632 195.093 410.585 223.647 408.397 231.343C405.858 240.288 398.827 252.046 391.522 259.624C388.592 262.71 381.952 267.085 375.975 269.936C369.178 273.179 365.663 274.311 361.717 274.546C355.311 274.858 351.6 273.14 345.428 266.851C340.975 262.358 338.671 258.608 338.671 255.796C338.671 253.296 339.491 253.491 343.085 256.89C346.288 259.976 348.202 261.304 348.71 260.835C348.983 260.522 347.421 256.343 345.194 251.577C343.827 248.647 343.632 247.827 343.475 244.546C343.241 240.132 343.749 237.241 345.389 233.999C346.874 231.03 350.116 227.358 350.78 227.983C351.014 228.218 351.639 231.108 352.186 234.39C352.694 237.671 353.241 240.483 353.358 240.679C353.749 241.343 354.686 241.03 355.038 240.132C355.233 239.663 355.975 237.436 356.639 235.21C357.421 232.71 359.139 228.686 361.132 224.858C362.889 221.382 364.764 217.358 365.233 215.913C366.132 213.101 366.952 212.319 367.811 213.452C368.28 214.116 371.249 223.022 371.678 225.093C371.796 225.718 372.03 226.186 372.186 226.186C372.616 226.186 375.663 218.96 377.03 214.663C378.085 211.382 378.163 210.679 378.202 204.507C378.241 200.835 378.124 197.124 377.967 196.226C377.694 194.819 377.772 194.507 378.358 194.272C379.257 193.96 383.046 197.905 385.702 201.968C387.499 204.663 387.655 204.819 388.007 203.999C388.514 202.866 387.772 194.155 386.913 190.835C385.35 184.897 379.335 174.702 374.491 169.78C371.366 166.577 371.366 166.03 374.647 165.483C377.382 165.015 381.991 165.679 385.155 167.007C386.483 167.554 387.694 167.905 387.85 167.788C388.436 167.163 381.014 162.202 374.374 158.725C366.444 154.585 361.991 153.413 355.077 153.569C353.007 153.647 351.132 153.53 350.858 153.374C349.803 152.71 350.428 151.694 352.421 150.757C353.553 150.249 355.467 149.077 356.717 148.14C359.178 146.382 360.155 146.186 363.28 146.929C364.257 147.163 367.85 147.397 371.288 147.436C376.952 147.515 377.733 147.593 379.647 148.452C382.03 149.507 386.014 152.944 389.608 156.968C392.694 160.444 393.163 160.522 392.772 157.593C392.382 154.429 391.21 151.46 389.139 148.296C387.108 145.21 387.186 144.311 389.53 144.429C390.897 144.507 396.639 146.265 399.257 147.397C400.116 147.788 400.819 147.866 401.171 147.671C401.639 147.397 401.444 147.007 400.194 145.679C396.835 142.202 391.366 138.765 385.467 136.382C384.764 136.108 384.374 135.679 384.374 135.171C384.374 134.194 387.186 132.788 393.749 130.561C396.132 129.78 398.046 128.999 398.046 128.843C398.046 128.686 397.46 128.491 396.796 128.374C396.092 128.257 393.827 127.905 391.796 127.554C388.788 127.046 387.499 127.046 384.96 127.358C376.053 128.608 373.592 128.647 373.163 127.515C373.046 127.202 374.061 125.757 375.389 124.233C376.757 122.71 377.733 121.382 377.616 121.225C377.499 121.108 375.038 121.265 372.186 121.538C362.616 122.554 360.702 122.28 348.632 118.374C344.53 117.085 341.835 116.421 339.647 116.265C337.928 116.147 334.139 115.874 331.249 115.64C328.358 115.405 324.413 114.975 322.499 114.624C319.608 114.077 318.788 113.765 317.655 112.71C316.405 111.616 316.249 111.186 316.092 109.116C315.936 106.811 315.936 106.772 317.733 104.741C319.491 102.788 319.53 102.632 319.53 100.21C319.53 96.2255 319.882 95.7567 324.296 94.1552C326.874 93.2177 327.733 92.1239 327.733 89.7411C327.733 88.3739 327.499 87.788 326.678 86.9286C324.921 85.1317 321.639 83.8427 319.139 83.9208C317.967 83.9599 314.374 83.9989 311.132 83.9989C304.569 83.9989 302.264 84.4677 299.022 86.4208C296.678 87.827 294.53 89.8192 294.53 90.5224C294.53 90.952 294.882 90.9911 296.014 90.7567C296.796 90.6005 299.413 90.4442 301.757 90.4442C305.585 90.4833 306.249 90.6005 307.772 91.4208C310.272 92.827 310.507 93.413 309.296 95.0145C308.007 96.7333 307.538 98.3739 307.264 102.163C306.835 108.804 306.171 109.429 302.967 106.343C299.022 102.515 297.655 102.202 296.092 104.741C295.038 106.499 294.022 107.046 291.952 107.046C290.35 107.046 287.538 108.296 286.405 109.507C284.725 111.343 282.421 118.257 282.421 121.499L282.46 123.257L283.983 120.366C285.819 116.929 286.913 115.679 289.491 114.272C291.913 112.944 293.007 113.179 294.374 115.21C295.311 116.694 295.507 116.772 297.967 117.046C299.608 117.202 301.717 117.124 303.514 116.85C308.71 115.991 308.749 115.991 308.905 117.788C309.022 119.155 308.866 119.507 307.772 120.405C306.717 121.304 306.561 121.616 306.757 122.671C306.913 123.335 307.655 124.936 308.397 126.225C309.921 128.804 310.077 129.741 309.139 130.522C308.788 130.796 308.007 132.046 307.382 133.296C305.819 136.343 304.061 137.397 295.35 140.483C294.217 140.874 293.241 141.382 293.202 141.616C293.085 142.593 296.288 143.061 301.757 142.866C308.944 142.593 310.936 142.007 313.241 139.507C314.569 138.1 315.585 137.436 317.186 136.929C320.35 135.913 321.405 135.288 322.069 133.999C323.046 132.124 322.811 130.913 321.092 129.077C319.686 127.515 319.53 127.202 319.53 125.249C319.53 120.444 320.038 119.975 323.436 121.694C324.491 122.241 326.678 123.1 328.319 123.647C331.132 124.585 331.6 124.624 338.788 124.546C347.342 124.429 348.436 124.624 353.592 127.475C358.241 129.975 363.671 133.96 363.671 134.819C363.671 135.6 363.319 135.757 359.178 136.343C357.694 136.577 352.928 137.436 348.632 138.296C342.03 139.624 340.311 140.132 337.538 141.499C333.007 143.765 330.741 145.991 329.335 149.429L328.241 152.163L322.811 152.397C316.092 152.71 312.069 153.647 305.507 156.499C295.194 160.952 290.624 164.858 285.428 173.647C284.022 176.03 282.264 178.921 281.483 180.093C280.702 181.304 279.764 183.218 279.335 184.39C278.944 185.561 276.835 190.757 274.686 195.913C263.749 222.319 262.264 225.405 256.561 233.96C251.522 241.499 244.178 250.796 241.483 252.983C236.092 257.436 227.03 262.319 220.702 264.233C211.405 267.007 203.202 267.163 195.702 264.78C188.397 262.476 178.358 255.718 169.452 247.202C165.858 243.765 166.092 244.155 157.733 228.647C155.975 225.366 154.882 222.397 154.061 218.569C153.436 215.64 153.124 210.015 153.592 209.585C153.749 209.429 156.639 211.968 160.038 215.249C166.405 221.382 167.811 222.554 168.241 222.124C168.397 222.007 167.694 220.249 166.678 218.257C165.663 216.265 164.842 214.233 164.842 213.765C164.842 213.257 163.944 210.249 162.889 207.085C161.757 203.686 160.663 199.585 160.311 197.241C159.452 191.655 159.764 184.819 161.171 179.311C162.147 175.249 163.046 173.452 163.436 174.663C163.514 174.976 164.413 178.101 165.389 181.655C166.913 187.085 173.71 205.874 174.413 206.577C174.882 207.046 175.272 205.991 175.741 203.14C176.014 201.538 176.717 197.202 177.342 193.569C177.967 189.897 178.866 184.507 179.296 181.538C180.155 176.108 181.171 171.89 184.491 160.366C185.507 156.929 186.483 153.374 186.717 152.436C186.952 151.538 187.382 150.796 187.655 150.796C188.319 150.796 189.725 153.999 190.428 157.163C190.741 158.491 191.366 164.155 191.835 169.741C192.264 175.327 192.733 179.976 192.811 180.054C193.475 180.757 195.389 176.733 200.585 163.765C205.038 152.71 206.796 144.038 207.46 130.288C207.655 125.561 207.811 120.444 207.733 118.921C207.655 116.108 208.085 114.858 209.178 114.858C209.999 114.858 214.569 118.569 217.342 121.499C221.132 125.522 224.53 130.991 225.194 134.077C225.467 135.561 226.014 135.444 226.327 133.882C227.382 128.1 227.655 118.296 226.952 111.304C226.444 106.225 224.569 96.8114 223.007 91.4208C221.952 87.827 219.53 82.3974 216.561 76.9677C215.389 74.8192 215.311 73.452 216.405 73.452C217.577 73.452 221.288 75.2099 224.335 77.2411C225.858 78.2567 229.53 81.4208 232.46 84.2724C235.389 87.1239 237.889 89.3505 238.007 89.2333C238.124 89.077 238.007 88.3349 237.733 87.5536C237.421 86.7724 236.561 84.1161 235.741 81.6552C233.788 75.5224 231.21 70.3661 226.952 63.8817C221.249 55.2489 216.483 50.952 209.53 48.0614C207.85 47.3583 205.741 46.4208 204.882 45.9911C202.382 44.7411 196.014 42.6708 192.499 42.0067C186.288 40.7958 186.092 40.2489 190.428 36.0692C193.788 32.788 197.342 30.6005 203.241 28.1395C205.546 27.202 207.421 26.2645 207.421 26.1083C207.421 25.952 206.327 25.4833 204.999 25.0927C202.889 24.4286 201.014 24.3114 191.6 24.1942C180.389 24.077 178.671 24.1942 170.038 25.8349C167.811 26.2255 165.624 26.577 165.116 26.577C164.022 26.577 157.694 28.2177 154.53 29.3114C153.241 29.7411 152.108 30.0927 151.952 30.0927C150.702 30.0927 151.717 26.4208 153.592 24.077L154.803 22.5536L152.928 22.8661C149.335 23.3739 145.272 24.6239 141.288 26.3427C137.85 27.827 137.225 28.0224 136.757 27.5536C136.288 27.0849 136.288 26.8114 136.678 25.913C137.772 23.4911 140.975 18.3739 143.632 14.7802C145.311 12.5145 146.288 10.8739 146.053 10.7177C145.546 10.4052 142.811 11.8505 137.694 15.1708C132.772 18.3349 128.983 21.4208 123.788 26.4599C121.522 28.6864 119.452 30.4833 119.217 30.4833C118.397 30.4833 118.71 28.9989 120.35 25.3661C121.21 23.413 122.46 20.3661 123.046 18.6474C123.671 16.8895 125.311 12.6317 126.717 9.19423C129.139 3.33485 129.803 0.795807 128.905 0.795807C128.71 0.795807 128.28 1.18643 128.007 1.65518ZM184.725 30.4442C185.467 30.913 185.35 31.1083 181.952 34.3505C178.553 37.5927 178.671 37.5927 174.803 35.1317C172.147 33.452 172.147 33.452 177.733 31.7724C183.632 30.0145 183.944 29.9364 184.725 30.4442ZM208.671 57.202C209.803 57.7099 212.186 59.1942 213.983 60.5224C216.991 62.7489 217.967 63.8036 217.46 64.3114C217.382 64.4286 215.467 64.5067 213.28 64.5067C210.116 64.5067 209.139 64.3505 208.553 63.8427C207.655 63.0224 205.35 57.5145 205.624 56.8114C205.897 56.0692 206.288 56.1083 208.671 57.202ZM69.4128 70.1317C70.6237 75.952 66.9128 81.6942 62.3034 81.1864C60.5065 80.952 57.7721 79.7411 57.5378 79.038C57.4596 78.8427 58.1628 77.8661 59.0612 76.9286C59.9987 75.952 62.3034 73.452 64.2175 71.3817C66.3659 68.9989 67.9284 67.5927 68.319 67.6708C68.7487 67.7489 69.1003 68.5302 69.4128 70.1317ZM216.288 96.2255C218.202 102.319 219.53 107.397 219.53 108.491C219.53 109.585 219.413 109.78 218.592 109.78C217.538 109.78 213.358 107.436 212.303 106.265C211.639 105.522 211.678 105.327 212.811 101.304C213.475 98.9599 214.217 96.3036 214.452 95.3661C214.96 93.3739 215.507 93.6083 216.288 96.2255ZM201.561 137.593C201.561 140.327 200.702 144.35 199.764 146.186C199.257 147.202 199.061 147.28 198.632 146.85C197.811 145.991 194.921 140.522 194.921 139.78C194.921 139.429 195.507 138.804 196.21 138.335C196.874 137.905 198.163 137.007 198.983 136.343C201.249 134.585 201.561 134.741 201.561 137.593ZM174.999 164.858C174.999 166.147 173.397 172.202 172.85 172.944C172.421 173.53 172.264 173.452 171.522 171.968C171.092 171.069 170.702 169.976 170.702 169.507C170.702 168.647 171.757 166.929 173.358 165.132C174.569 163.882 174.999 163.804 174.999 164.858ZM153.671 192.28C154.022 193.647 153.944 196.03 153.514 196.304C153.046 196.577 151.561 195.132 151.561 194.351C151.561 193.53 152.655 191.421 153.085 191.421C153.28 191.421 153.514 191.811 153.671 192.28Z" fill="white"/>
</g>
<defs>
<clipPath id="clip0_94_1479">
<rect width="500" height="323.438" fill="white" transform="translate(0 0.794922)"/>
</clipPath>
</defs>
</svg>
