<svg width="500" height="378" viewBox="0 0 500 378" fill="none" xmlns="http://www.w3.org/2000/svg">
<g clip-path="url(#clip0_94_1485)">
<path d="M163.477 0.546769C162.813 0.820151 161.758 1.64029 161.172 2.38233C160.234 3.47586 160.078 3.94451 160.234 5.46764C160.43 7.3032 161.914 10.8962 163.047 12.3022C163.672 13.0442 163.711 13.0442 163.398 11.7164C163.242 10.9743 163.086 9.21687 163.086 7.88901C163.086 5.74102 163.203 5.31142 164.023 4.64749C166.055 3.0072 169.258 3.98356 172.188 7.22509C174.102 9.33403 176.797 13.5519 176.484 13.8644C176.367 13.9815 175.273 13.9425 173.984 13.7472C169.258 13.1223 166.797 14.2158 166.797 16.9106C166.797 20.3865 172.656 28.5098 181.094 36.7112C185.898 41.3587 189.219 44.1706 188.477 42.9209C188.008 42.1398 182.773 35.4224 180.43 32.6105C178.008 29.7205 175.391 24.6043 175.391 22.8078C175.391 21.5971 175.508 21.48 176.563 21.48C179.648 21.48 182.813 24.331 187.461 31.2436C197.656 46.3967 212.5 76.5468 235.938 129.739C239.883 138.722 243.203 145.986 243.242 145.908C243.516 145.673 225.977 105.447 214.922 80.8428C193.086 32.1809 183.594 14.4502 174.609 5.42858C172.578 3.39775 170.195 1.36691 169.336 0.976369C167.305 0.0390609 164.922 -0.156212 163.477 0.546769Z" fill="white"/>
<path d="M336.132 3.24094C333.202 4.6469 330.39 7.02922 327.187 10.9347C319.491 20.1906 310.585 35.8514 294.843 67.8371C283.046 91.8556 258.397 144.071 258.71 144.384C258.788 144.462 261.288 139.346 264.257 133.097C292.265 73.8515 311.405 38.3119 320.976 27.7281C324.491 23.8617 328.944 22.1824 329.218 24.6037C329.374 26.1269 326.483 31.5164 323.866 34.6017C319.608 39.4835 315.624 44.4044 315.624 44.6778C315.624 45.9666 328.593 33.8206 332.851 28.5482C335.937 24.7209 337.89 21.0107 337.89 19.019C337.89 16.4414 334.804 15.1526 330.468 15.9336C329.296 16.168 328.241 16.2851 328.202 16.207C327.851 15.8946 330.429 12.1454 332.499 9.91925C335.038 7.22449 336.718 6.24813 338.827 6.24813C340.429 6.24813 341.64 7.22449 342.03 8.82573C342.265 9.80209 341.835 13.2389 341.21 15.0354C340.741 16.4023 342.46 14.0981 343.593 11.8329C345.507 8.00558 345.272 5.58421 342.812 3.70959C340.819 2.18646 338.632 2.0693 336.132 3.24094Z" fill="white"/>
<path d="M71.1719 34.9534C66.4844 35.5782 65.8594 35.7345 67.1875 36.0469C67.7344 36.1641 70.7031 36.828 73.8281 37.4919C85.1172 39.9914 108.164 47.1774 116.992 50.9657C133.828 58.1908 159.844 73.3049 193.477 95.4097C198.555 98.7684 202.734 101.346 202.734 101.151C202.734 100.838 191.758 90.2545 185.938 84.9041C168.164 68.6574 144.102 51.2781 130.273 44.6779C120.352 39.9523 110.742 37.0623 99.0235 35.3049C93.4766 34.4457 76.4453 34.2504 71.1719 34.9534Z" fill="white"/>
<path d="M28.9056 38.9367C24.179 39.4054 19.1009 40.6161 10.2337 43.3889C4.72592 45.1073 0.155604 46.5914 0.116542 46.6305C-0.0397083 46.7867 5.4681 64.2831 6.28842 66.1968C9.60873 74.0077 18.2415 82.6387 30.1556 90.1372C31.6009 91.0354 32.8509 91.7775 32.89 91.7775C32.9681 91.7775 32.9681 90.6839 32.89 89.317C32.6947 85.6459 33.8665 82.834 36.8744 79.8658C44.765 72.0159 62.8509 68.54 90.2728 69.5164C104.14 70.0241 112.773 71.2348 126.288 74.6325C147.734 80.0221 170.859 89.5514 199.218 104.704C213.085 112.086 188.32 97.0108 167.968 85.6459C145.077 72.8751 119.023 59.948 103.515 53.6993C84.1009 45.8494 63.6712 40.6942 45.5072 39.0539C41.4837 38.7024 31.9915 38.6243 28.9056 38.9367ZM53.1244 45.4198C63.7884 47.2944 75.6244 50.8093 87.5384 55.6521C95.7806 58.9717 95.8587 59.0498 91.7962 58.8155C89.9603 58.6592 81.4447 58.464 72.8509 58.3468C46.8744 57.9172 39.6478 58.9717 34.4134 63.8535C32.1869 65.9234 30.8587 68.8525 30.8587 71.6644C30.8587 73.6952 30.7025 73.7343 27.1478 72.836C23.7884 71.9378 20.8978 70.1413 17.7337 66.9388C10.9759 60.1043 10.1947 53.0745 15.8197 49.2081C18.8665 47.0991 22.5775 45.8103 28.9056 44.6777C33.7494 43.8185 46.1712 44.2091 53.1244 45.4198Z" fill="white"/>
<path d="M414.453 38.9367C401.875 39.4054 388.555 42.2173 377.696 46.6695C359.141 54.2461 331.485 73.6562 307.188 96.1125C300.313 102.439 299.024 103.767 300.938 102.557C301.602 102.166 306.407 99.1588 311.68 95.8782C347.032 74.0467 373.594 59.7918 390.703 53.5041C400.313 49.9501 424.61 43.4671 433.985 41.9049C436.25 41.5534 438.164 41.2019 438.242 41.1238C438.672 40.8114 437.774 40.6161 434.141 40.0693C428.672 39.2492 419.688 38.7415 414.453 38.9367Z" fill="white"/>
<path d="M456.445 44.9129C437.617 46.475 415.469 51.9427 394.961 60.1051C378.789 66.5491 354.18 78.1873 332.227 89.7474C318.203 97.1287 299.414 107.713 299.727 108.025C299.805 108.142 300.859 107.673 301.992 107.049C305.898 104.901 323.203 96.7772 330.078 93.8482C352.461 84.3189 373.555 78.0311 392.383 75.3754C408.633 73.0712 433.008 73.6179 446.875 76.6251C456.602 78.695 463.125 81.7413 467.148 86.1154C469.648 88.8101 470.508 90.9581 470.508 94.5902C470.508 96.2695 470.625 97.6364 470.742 97.6364C470.859 97.6364 472.5 96.6991 474.336 95.5666C488.477 87.0136 497.266 77.4062 499.414 68.2284C502.305 56.0825 494.844 48.1153 478.125 45.4596C473.516 44.7567 462.148 44.4442 456.445 44.9129ZM473.633 50.5758C478.594 51.3178 481.562 52.138 485 53.7001C492.852 57.2541 494.414 62.4093 489.766 69.361C485.977 75.0239 480.898 78.3826 474.57 79.437L473.164 79.6714L472.969 77.0547C472.656 72.6416 470.312 69.361 465.977 67.1739C460.234 64.2448 454.258 63.62 429.297 63.3856L409.219 63.1904L412.5 61.8625C425.742 56.5121 442.187 52.0208 453.984 50.6148C460 49.8728 468.867 49.8728 473.633 50.5758Z" fill="white"/>
<path d="M80.0777 78.7333C79.3355 78.8114 76.523 79.0848 73.8277 79.3191C64.2965 80.1393 54.8433 82.2092 49.6871 84.5915C43.1246 87.5987 40.3121 91.0745 40.7418 95.683C41.0152 98.9635 42.8902 102.205 46.6793 106.071C51.9918 111.461 58.0074 115.562 73.6324 124.388C106.093 142.705 131.953 167.348 136.171 183.946C136.679 185.86 136.757 187.305 136.562 189.961C136.093 195.819 134.296 205.27 132.89 208.902C132.461 209.995 136.445 206.793 138.632 204.254C144.296 197.732 147.5 190.351 149.609 179.299C151.445 169.574 155.898 163.052 163.164 159.459C165.859 158.131 166.445 157.975 169.296 157.975C172.968 157.975 175.078 158.834 176.718 161.021C178.554 163.403 179.062 165.122 179.062 169.105C179.101 174.768 177.734 178.166 171.992 186.602C165.117 196.639 163.593 199.06 161.367 203.473C157.07 211.909 155.546 217.924 155.195 227.492C154.843 238.349 156.328 245.652 162.5 263.617C168.593 281.231 171.992 293.416 173.867 304.078C175.117 311.264 175.156 321.184 173.906 330.01C171.484 347.623 170.625 351.451 168.359 355.786L167.226 357.934L168.476 356.489C170.507 354.224 173.711 347.702 175.586 342.039C179.882 328.994 180.625 317.825 179.101 289.784C177.617 262.524 179.14 254.986 186.132 254.986C192.07 254.986 196.093 260.454 198.281 271.428C199.257 276.427 199.453 291.385 198.671 299.04C197.851 306.89 196.718 313.216 194.921 320.637C192.773 329.307 192.421 332.119 192.421 339.578C192.461 350.279 194.296 359.926 198.515 371.33C199.179 373.087 199.804 374.493 199.882 374.415C199.961 374.298 199.687 371.798 199.257 368.83C196.601 350.201 197.265 333.876 201.171 322.121C201.796 320.246 203.632 316.107 205.273 312.865C211.211 301.071 214.257 288.807 215.312 272.717C216.25 257.837 214.375 243.66 209.57 229.132C208.398 225.617 207.265 221.321 206.992 219.447C205.859 211.245 208.984 203.669 214.687 200.896C216.484 200.037 217.187 199.88 219.492 200.037C222.695 200.193 224.726 201.403 226.562 204.176C228.203 206.676 228.867 209.136 229.375 214.721C229.961 220.97 229.414 226.984 227.343 237.216C224.726 250.261 224.609 252.877 226.406 260.141C226.914 262.172 227.539 265.609 227.773 267.718C228.515 274.084 227.851 286.777 226.367 293.689C225.976 295.564 226.836 293.572 228.281 289.237C233.007 275.177 235.195 261.665 234.336 251.51C233.632 242.996 234.296 239.169 238.75 225.93C241.796 216.986 241.953 216.361 242.109 212.378C242.265 208.668 242.187 207.808 241.289 204.957C239.57 199.529 239.062 195.428 239.062 187.695C239.062 181.095 239.687 173.714 240.625 168.793C240.976 166.84 240.898 166.45 239.648 163.208C237.851 158.561 234.414 151.882 231.523 147.508C223.984 135.948 213.984 126.731 203.593 121.81C196.679 118.491 185.273 115.288 175.195 113.765C168.476 112.789 152.695 112.789 146.718 113.765C140.312 114.859 140.312 115.054 146.718 115.327C159.843 115.874 170.468 118.53 174.804 122.318C180.234 127.122 178.203 131.262 169.531 133.019C164.687 133.995 153.632 133.605 146.484 132.238C136.093 130.285 123.242 125.833 116.406 121.849C108.007 116.929 106.132 112.437 110.781 108.18C115.273 104.041 124.961 101.268 138.086 100.369C155.195 99.1588 179.882 104.08 200 112.711C202.656 113.843 204.921 114.742 204.961 114.663C205.156 114.468 201.406 112.047 196.875 109.469C167.851 92.7539 134.218 81.5062 105.468 78.9286C101.445 78.538 83.4762 78.4209 80.0777 78.7333ZM109.062 82.9903C115.039 83.6932 120.39 84.7868 125.39 86.388C129.257 87.6377 135.82 90.4887 135.468 90.8011C135.39 90.8793 133.281 90.5668 130.82 90.0591C116.601 87.0519 110.078 87.3253 106.171 91.0355C104.257 92.832 104.179 94.3161 105.859 96.2297C107.539 98.1043 107.968 99.5494 107.461 101.463C106.992 103.064 104.804 106.657 104.101 106.892C103.867 106.97 103.476 106.267 103.203 105.408C102.148 102.01 98.398 98.0262 96.2496 98.0262C91.0152 98.0262 87.3824 105.603 90.3121 110.524C91.6793 112.828 93.2418 114.273 97.3824 116.968C103.671 121.068 106.914 124.74 107.851 128.684C108.398 131.027 107.734 133.097 106.093 134.152C104.843 134.972 102.929 134.464 101.523 132.941C97.3433 128.45 83.359 119.545 67.9683 111.578C59.5699 107.243 56.3277 105.173 53.9058 102.713C46.4449 95.0581 52.8902 88.8875 72.4605 84.943C76.6402 84.1228 84.0621 83.0293 88.4762 82.6778C92.9683 82.2873 104.609 82.4825 109.062 82.9903ZM212.304 137.159C214.726 137.784 218.086 139.619 220.625 141.728C225.351 145.673 230.625 154.265 233.125 162.076C234.062 165.044 234.179 165.981 234.14 170.668C234.14 175.237 233.984 176.409 233.046 179.455C231.914 183.204 229.804 188.086 229.453 187.773C229.336 187.656 229.609 185.821 230.039 183.712C231.132 178.283 231.406 173.753 230.898 170.316C229.609 162.115 222.812 152.429 215.937 149.031C207.89 145.048 198.007 147.977 194.218 155.514C192.109 159.732 191.601 162.349 191.64 168.91C191.679 173.558 191.836 175.393 192.5 177.815C194.218 184.141 197.187 188.515 200.468 189.492C202.461 190.078 205.976 189.414 207.304 188.164C208.359 187.188 208.437 185.86 207.617 182.774C206.328 177.971 207.461 173.714 210.664 171.41C216.093 167.465 225.117 174.104 225.156 182.032C225.156 186.563 222.07 190.234 215.703 193.202C210.937 195.428 207.929 197.576 204.648 201.013C199.765 206.168 197.187 210.816 195.507 217.572C191.601 232.999 185.703 241.747 179.257 241.747C176.015 241.747 170.859 238.544 167.382 234.326C166.562 233.35 165.273 231.241 164.492 229.64C163.125 226.789 163.086 226.555 163.086 222.22C163.086 216.713 163.984 213.784 166.953 209.371C170.703 203.903 174.062 202.419 176.484 205.192C179.726 208.902 179.375 215.424 175.781 218.47L174.531 219.486H175.976C177.968 219.486 180.898 217.884 182.812 215.697C184.726 213.51 187.265 208.433 187.851 205.504C188.437 202.614 188.398 194.335 187.695 186.68C187.382 183.126 186.953 177.073 186.718 173.167C185.507 151.609 190.234 140.752 202.382 137.315C206.093 136.261 208.711 136.222 212.304 137.159Z" fill="white"/>
<path d="M394.14 83.1859C371.405 85.3339 347.07 92.0122 322.46 102.908C313.163 107.009 298.905 114.547 298.163 115.679C298.007 115.953 298.124 116.031 298.476 115.875C322.265 105.72 350.937 100.995 370.468 104.041C383.984 106.189 393.163 110.563 394.374 115.484C395.038 118.062 392.812 121.459 388.71 124.076C381.757 128.528 366.288 133.644 354.335 135.402C348.124 136.3 336.757 136.3 333.085 135.402C324.257 133.215 322.187 129.465 327.304 124.857C331.484 121.069 339.687 118.999 353.085 118.335C357.265 118.101 360.741 117.866 360.82 117.788C361.015 117.632 355.39 116.538 350.976 115.914C345.195 115.093 331.015 115.328 324.218 116.343C317.695 117.32 308.945 119.389 303.984 121.108C287.07 127.044 273.046 140.44 263.515 159.733C260.39 166.138 260.351 166.294 261.249 174.339C261.913 180.275 261.835 191.875 261.132 196.6C260.82 198.709 259.999 202.029 259.296 204.021C256.913 210.855 257.226 214.721 261.171 227.102C264.882 238.74 265.468 243.348 264.452 253.698C263.945 259.048 264.335 265.648 265.663 273.342C266.757 279.903 270.859 295.252 271.327 294.744C271.445 294.627 271.366 293.533 271.132 292.284C270.312 287.597 269.882 278.302 270.273 273.147C270.741 267.328 271.093 265.375 272.538 260.181C274.101 254.674 274.023 248.66 272.382 239.599C270.624 230.031 270.312 227.453 270.312 221.712C270.351 210.816 272.109 205.192 276.484 202.146C278.905 200.427 282.382 200.232 285.312 201.677C290.859 204.372 294.023 211.792 292.968 219.447C292.46 223.274 291.874 225.383 289.921 230.499C279.921 256.9 280.78 290.878 292.07 314.388C296.132 322.902 297.734 329.034 298.476 339.461C299.14 348.444 298.007 362.738 295.859 373.322C295.546 374.884 295.351 376.251 295.429 376.368C295.663 376.563 298.359 369.729 299.765 365.355C302.851 355.864 304.101 348.014 304.023 338.407C304.023 331.612 303.905 330.518 302.773 325.324C299.296 309.468 297.968 295.681 298.788 283.887C299.53 273.733 301.054 267.054 303.71 262.641C305.585 259.556 306.405 258.736 308.749 257.564C314.452 254.713 318.476 257.916 319.57 266.156C320.155 270.569 319.882 278.185 318.515 294.666C317.304 309.233 317.03 324.816 317.89 330.596C319.609 342.117 323.437 353.326 327.538 358.911C328.788 360.59 328.788 360.199 327.577 357.817C325.546 353.834 324.53 348.678 323.241 335.634C321.679 319.856 321.952 312.748 324.687 301.305C327.07 291.268 330.937 279.396 337.851 261.196C342.89 247.918 344.804 238.271 344.374 228.078C344.14 221.947 343.554 218.393 341.952 213.472C339.804 206.793 337.655 202.654 330.624 191.718C323.632 180.861 322.109 177.307 322.109 171.84C322.109 167.544 322.968 164.849 325.155 162.701C329.765 158.092 338.32 159.85 344.53 166.606C348.202 170.668 350.312 175.472 351.366 182.267C352.695 190.703 354.999 197.42 358.437 203.005C360.234 205.895 366.562 212.808 367.03 212.339C367.148 212.222 366.991 211.167 366.64 209.996C365.624 206.442 364.452 198.904 364.179 194.062C363.984 190.078 364.062 189.219 364.804 186.641C368.749 173.714 385.546 156.413 409.257 140.83C416.484 136.105 422.734 132.473 433.124 126.966C445.624 120.366 451.796 116.226 457.07 110.915C463.905 104.041 464.452 97.6751 458.671 93.1448C452.773 88.4973 442.773 85.6463 425.859 83.7327C419.57 83.0297 399.609 82.6782 394.14 83.1859ZM415.429 87.2866C434.57 89.4346 448.866 94.3164 451.562 99.5497C453.163 102.713 452.265 105.174 448.202 108.923C445.898 111.032 444.179 112.008 434.609 116.773C418.398 124.779 408.984 130.325 402.226 135.792C400.585 137.12 398.749 138.37 398.202 138.487C396.718 138.878 395.351 138.057 394.687 136.417C392.851 132.121 397.03 126.146 405.273 121.225C411.445 117.554 413.632 114.742 413.671 110.485C413.671 106.619 410.859 102.869 407.577 102.44C406.327 102.284 405.78 102.479 404.374 103.494C402.46 104.861 400.507 107.478 399.57 109.86L398.945 111.461L397.695 109.743C396.249 107.712 395.273 104.666 395.585 103.104C395.702 102.44 396.21 101.502 396.757 100.917C398.398 99.1201 398.866 98.1828 398.593 97.0893C398.163 95.3709 395.624 93.4572 392.538 92.5199C390.077 91.7779 389.14 91.6998 384.804 91.8951C382.109 92.0122 377.265 92.559 374.062 93.1057C370.859 93.6525 368.124 94.1212 368.007 94.1212C367.577 94.0821 370.859 92.4418 373.241 91.5045C376.64 90.1376 385.195 88.0287 389.257 87.521C391.21 87.2866 393.202 87.0132 393.749 86.9351C396.523 86.5446 410.898 86.7789 415.429 87.2866ZM299.257 138.487C310.741 141.924 315.429 151.336 314.726 169.692C314.57 173.128 314.023 179.807 313.476 184.532C312.109 196.014 311.796 205.153 312.616 208.434C313.945 213.511 317.226 218.588 320.429 220.423C322.148 221.439 324.999 222.142 324.999 221.595C324.999 221.4 324.374 220.619 323.593 219.877C321.991 218.275 320.976 215.307 321.327 213.237C322.109 208.473 324.296 205.544 326.796 205.934C328.593 206.247 330.468 207.77 332.382 210.504C334.57 213.628 335.78 216.44 336.562 220.345C337.109 223.079 337.148 224.055 336.757 226.516C335.937 231.827 333.007 236.514 328.398 240.029C324.726 242.802 322.265 243.817 319.726 243.622C312.968 243.075 308.007 234.795 303.984 217.455C302.734 212.066 299.53 206.325 295.038 201.521C292.265 198.514 289.062 196.21 284.609 194.062C280.976 192.304 277.968 189.766 276.757 187.461C275.702 185.431 275.546 181.72 276.366 179.221C277.695 175.198 283.007 171.019 286.679 171.059C289.726 171.098 292.929 174.183 293.749 177.932C294.101 179.533 294.062 180.432 293.32 183.595C292.812 185.821 292.577 187.813 292.734 188.438C293.28 190.508 298.866 191.796 301.523 190.43C304.062 189.102 306.562 185.352 308.124 180.432C309.335 176.643 309.765 173.714 309.765 169.145C309.726 159.967 306.952 153.64 301.679 150.867C293.632 146.61 286.093 147.899 279.296 154.734C274.999 159.108 271.562 165.122 270.468 170.316C269.726 173.792 269.921 180.158 270.898 184.884C271.249 186.563 271.445 188.008 271.327 188.125C270.937 188.516 269.023 184.064 268.046 180.471C267.226 177.385 267.07 175.823 267.03 171.644C267.03 167.075 267.148 166.216 268.124 163.248C272.109 151.141 279.921 141.69 288.32 138.643C291.015 137.667 296.249 137.589 299.257 138.487Z" fill="white"/>
<path d="M257.304 147.04C256.366 148.993 256.522 149.305 257.46 147.508C257.89 146.649 258.202 145.907 258.124 145.829C258.007 145.751 257.655 146.298 257.304 147.04Z" fill="white"/>
<path d="M247.657 156.139C246.836 156.96 245.977 158.326 245.703 159.225C245.274 160.631 245.274 161.021 245.86 161.841C247.071 163.716 252.539 164.224 254.844 162.74C257.539 160.982 254.141 154.655 250.508 154.655C249.414 154.655 248.789 154.968 247.657 156.139Z" fill="white"/>
<path d="M248.983 165.59C247.655 166.137 246.132 168.246 245.468 170.589C244.374 174.339 245.155 179.962 247.968 188.281C248.983 191.249 249.062 191.679 248.554 192.382C245.233 196.717 243.632 210.113 244.452 226.281C245.272 242.254 248.671 272.209 249.608 271.623C250.233 271.233 252.694 254.908 254.491 238.974C256.874 217.884 256.288 200.349 253.046 193.983L252.147 192.147L253.827 187.031C256.835 177.814 257.226 172.386 255.155 168.363C253.866 165.864 251.249 164.653 248.983 165.59Z" fill="white"/>
</g>
<defs>
<clipPath id="clip0_94_1485">
<rect width="500" height="377.266" fill="white"/>
</clipPath>
</defs>
</svg>
