<svg width="1516" height="1707" viewBox="0 0 1516 1707" fill="none" xmlns="http://www.w3.org/2000/svg">
<path d="M962.667 11.8665C913.333 28.7999 878.267 43.4665 834.4 65.4665C753.467 106 670.8 162 607.467 219.333C592.4 233.067 591.467 233.6 586.8 232.933C584.134 232.533 571.2 230.4 558 228.133C520.267 221.733 494.4 219.6 476.8 221.333C456.4 223.333 441.6 227.2 426 234.533C409.733 242.267 394.267 253.6 382.4 266.533C373.867 275.733 360.933 293.467 362 294.4C362.267 294.667 369.6 291.067 378.4 286.267C404.533 271.867 422.4 265.2 442 262.533C456.133 260.667 462 262.267 481.333 273.067C496.667 281.6 502.933 288 504.533 296.667C505.733 303.067 502.667 306.533 490.667 312.667C483.867 316.133 479.067 320.267 468.133 332C433.2 369.6 399.733 390.267 357.467 400.667C342 404.4 335.333 407.733 326.8 416C319.733 422.933 317.333 428.4 317.333 438.267C317.333 445.6 317.067 446.133 313.733 447.6C311.6 448.4 298.533 453.867 284.667 459.733C255.6 471.867 217.467 484.933 198.267 489.333C187.333 491.733 184 493.2 177.467 498.133C160.267 511.067 144.933 534.267 139.467 555.467C136.533 567.333 135.6 580 137.333 584.667C140.267 592.4 149.467 602.667 163.333 613.867C179.733 627.067 189.333 631.067 204.667 631.2C223.733 631.2 237.467 623.2 267.733 594.267C291.867 571.2 294.933 568.933 316.8 558.667C336.933 549.067 351.2 544.4 368 541.867C390.133 538.533 400.267 539.467 478.667 551.067C514.133 556.267 518.667 556.667 545.333 556.667C575.867 556.667 586.267 555.467 604.267 549.867C638.934 538.933 670.667 496.667 677.467 452.133C678.4 446.133 679.733 441.333 680.533 441.333C682.667 441.333 699.867 454.267 707.467 461.467C730.933 483.467 748.267 510 758.667 539.6C760 543.333 761.867 547.733 762.667 549.467C765.2 554 766.4 550.533 767.467 536.533C768.533 521.733 766.8 507.067 760 470.8C757.067 455.067 754.667 442.133 754.667 441.867C754.667 438 775.467 452.267 793.733 468.667C801.6 475.6 808 481.067 808 480.667C808 479.067 804.533 473.467 783.6 440.8C771.867 422.533 762 406.667 761.733 405.467C761.467 404.267 762.4 402.133 763.867 400.8C766.4 398.533 767.467 398.533 777.6 400C809.067 404.533 835.067 418.4 853.733 440.667C871.2 461.333 876.933 476 875.6 496.667C874.267 518.267 866.133 535.2 845.333 559.6C823.6 585.2 767.467 616.267 707.333 636.267C602.8 670.8 459.067 674.267 327.2 645.467L310 641.6L318.667 649.6C336.4 666 357.867 680.933 378.533 691.333C393.467 698.8 398.133 700.533 415.2 705.2L428.4 708.8L421.2 712.933C391.067 729.867 349.733 740.666 290.667 746.8C275.6 748.266 275.067 748.533 262.667 755.733C212.933 784.8 150.8 832.4 112.933 870.267C71.8668 911.333 40.9334 955.867 24.2668 998C18.4001 1012.8 7.60011 1048.13 4.66678 1062.27C-2.13322 1094.4 -1.19989 1131.2 7.33344 1166.27C16.8001 1204.8 35.8668 1256.13 54.9334 1293.73L61.7334 1307.33L63.6001 1296.67C64.5334 1290.8 68.0001 1266.53 71.4668 1242.67C76.9334 1203.33 77.8668 1199.07 80.6668 1196.13L83.8668 1192.93L92.0001 1205.47C126 1257.6 141.733 1319.6 139.6 1393.2C137.733 1456.67 126.267 1504 99.3335 1559.6C86.8001 1585.33 86.4001 1584.67 105.333 1570.8C119.867 1560.27 150 1529.6 162.133 1513.07C180.933 1487.6 188.533 1473.87 206.8 1432.4C232.133 1374.53 246.533 1342.27 247.867 1340.13C248.8 1338.8 254.4 1341.6 272.8 1352.67C349.067 1398.53 422.667 1435.07 471.733 1451.47C488.933 1457.2 509.333 1462.67 513.333 1462.67C516.4 1462.53 510.267 1458 496 1449.6C480.4 1440.53 459.733 1426 452.8 1419.07C447.2 1413.47 443.333 1408.27 444.267 1407.33C445.067 1406.53 492.533 1425.6 540.667 1446C562.667 1455.47 583.867 1464.4 587.733 1466C591.733 1467.73 595.6 1469.73 596.4 1470.53C597.2 1471.33 598.667 1472 599.733 1472C604.8 1472 683.067 1511.2 703.2 1523.87C743.333 1549.07 770.133 1570 801.733 1601.2C831.2 1630.13 849.867 1653.73 869.2 1686C874.4 1694.8 879.2 1702.93 879.867 1704C881.733 1706.8 881.733 1684.53 879.867 1668.27C872.8 1603.07 839.333 1539.33 782.667 1482.93C751.333 1451.6 721.6 1427.87 678 1399.33C664.8 1390.67 653.733 1383.33 653.467 1383.07C652.267 1382.13 654.4 1381.47 666.667 1378.93C703.333 1370.93 739.467 1360.27 761.333 1350.8C768.267 1347.87 774.4 1345.33 774.933 1345.33C775.467 1345.33 778.4 1350.13 781.333 1355.87C806.267 1403.87 849.333 1439.47 904 1457.33C923.467 1463.73 939.867 1467.2 967.467 1470.53C989.2 1473.2 1044.93 1476.4 1053.33 1475.33C1055.87 1475.07 1067.07 1474.53 1078.13 1474.13C1112.8 1472.8 1150.27 1466.8 1177.07 1458C1184.93 1455.47 1192.13 1452.8 1192.93 1452.27C1193.87 1451.73 1168.67 1451.47 1136.93 1451.73C1081.33 1452.27 1078.4 1452.13 1053.33 1448.8C1026 1445.33 1006.53 1440.13 986.4 1430.93C966.533 1421.87 936.667 1398.67 944.933 1398.67C946.267 1398.67 951.867 1400 957.333 1401.47C970.267 1404.93 999.467 1406.27 1014.67 1404.13C1029.2 1402 1050.67 1395.73 1057.87 1391.47C1065.33 1387.07 1070.13 1381.47 1074.8 1371.33C1078 1364.67 1081.87 1350.67 1080.67 1350.67C1080.53 1350.67 1072.27 1354.8 1062.53 1359.87C1033.87 1374.67 1028 1375.6 1006.27 1368.53C988.533 1362.67 972.133 1349.33 965.333 1335.2C959.2 1322.53 964 1304.8 978.533 1287.33C992 1270.93 1027.07 1256 1064.93 1250.4C1081.87 1247.87 1127.47 1248.4 1146.67 1251.2C1175.07 1255.47 1217.73 1266.4 1234.67 1273.87C1238.67 1275.73 1249.07 1280.27 1257.87 1284.13C1276.93 1292.53 1286 1298.27 1297.87 1309.47C1318.67 1328.8 1331.33 1351.6 1340 1384.8C1342.27 1393.87 1346.53 1419.6 1346.67 1425.07C1346.67 1428.27 1349.33 1425.2 1358.8 1411.2C1368 1397.47 1380 1374.67 1380 1370.93C1380 1367.33 1383.47 1370.4 1392.27 1382C1411.33 1407.07 1425.47 1443.47 1431.6 1483.2C1434.8 1503.73 1434.8 1544.67 1431.6 1565.33C1426 1601.87 1413.07 1634.67 1392.53 1664.4C1388.67 1670.13 1386.27 1674.27 1387.2 1673.73C1388.27 1673.2 1395.6 1666.8 1403.6 1659.73C1454.53 1614.4 1494 1552.4 1506.13 1498.67C1518.4 1444.67 1509.33 1373.33 1483.07 1316C1469.87 1287.07 1445.6 1252.13 1423.47 1229.87C1401.33 1207.87 1348.13 1167.2 1296.67 1133.2C1167.33 1047.6 1014.4 983.2 859.333 949.333C852.8 947.867 845.867 946.267 844.133 945.867C837.6 944.4 844 949.067 862.4 959.067C892.133 975.467 925.867 994.4 927.6 996C928.533 996.8 936.933 1002 946.267 1007.6C971.733 1022.67 1018.13 1053.73 1039.33 1069.47C1069.33 1092 1102 1121.07 1099.73 1123.33C1099.47 1123.73 1094.67 1123.07 1089.2 1122.13C1083.73 1121.07 1068.27 1118.4 1054.67 1116.13C1041.07 1113.87 1020 1110.27 1007.73 1108.13C995.467 1106 977.733 1103.2 968.4 1102.13C944.933 1099.33 903.467 1096.93 896.933 1098.13L891.6 1098.93L905.467 1106.13C913.067 1110 931.2 1118.8 945.6 1125.6C960.133 1132.27 971.733 1138 971.467 1138.27C971.2 1138.53 960.667 1140.53 947.867 1142.67C915.867 1148.27 891.867 1153.73 871.067 1160.27L853.467 1165.73L835.733 1148.53C826 1139.07 812.267 1127.33 805.333 1122.4C789.467 1111.07 759.867 1096.27 740.667 1090C722.133 1084 681.333 1075.87 681.333 1078.13C681.333 1078.4 685.333 1080.53 690.267 1082.8C717.333 1095.2 737.067 1115.2 746.4 1139.73C749.6 1147.87 749.867 1150.4 750 1169.33C750 1183.47 749.467 1191.6 748.133 1195.2C744 1207.07 713.333 1233.47 689.333 1246C644.4 1269.2 576.933 1278.27 510.4 1269.87C476 1265.6 442.4 1258.13 428 1251.73C419.333 1247.87 402.667 1237.47 402.667 1235.87C402.667 1235.33 407.333 1234.53 413.067 1234.13C465.333 1229.6 520.267 1218.67 556.8 1205.47C573.067 1199.6 586.667 1193.73 586.667 1192.67C586.667 1192.13 579.333 1192.13 570.4 1192.4C525.467 1193.73 466.533 1189.33 431.333 1182.13C381.067 1171.73 331.333 1148.67 312.4 1126.93C290.533 1101.87 279.867 1074.13 280.133 1043.73C280.267 1030.53 282.4 1016.8 284.267 1016.67C284.667 1016.67 290.4 1023.87 296.933 1032.67C337.6 1087.6 377.2 1120.67 412.8 1129.2C425.067 1132.27 436.267 1133.47 435.2 1131.87C434.8 1131.2 427.467 1125.07 418.933 1118.27C392.4 1097.07 377.733 1076.27 372.667 1052.53C369.733 1038.67 370.133 1030.27 374.533 1017.73C385.867 985.333 414 953.2 450 931.733C472.4 918.4 491.067 910.8 518.533 904.133C555.2 895.067 655.067 875.6 661.067 876.267L664.667 876.667L658.667 882.4C644.933 895.733 626 906.533 603.333 913.867C597.467 915.867 591.733 917.867 590.667 918.267C584.533 920.933 636.8 922.133 663.333 920C702.933 916.667 757.2 906.533 786.667 897.067C807.6 890.4 979.333 810.933 1000.93 797.867C1049.33 768.8 1084.13 738.933 1114 700.667C1118.53 694.8 1123.33 687.867 1124.67 685.333C1127.33 680.267 1134.67 670.667 1135.87 670.667C1136.4 670.667 1139.87 675.867 1143.6 682.267C1168 724.133 1184.27 772.8 1190 822.133C1192.27 842 1192.67 883.6 1190.67 900C1188.8 914.4 1184.67 935.467 1181.2 947.067C1179.73 952.133 1178.67 956.8 1178.93 957.466C1179.73 959.733 1201.73 941.2 1220.13 922.8C1260.8 882 1285.33 838.267 1295.33 789.333C1306.93 732.4 1299.47 677.067 1271.2 612.267C1250 563.6 1215.47 509.067 1170.8 453.467C1149.33 427.067 1143.87 419.733 1144.4 419.067C1145.6 418 1182.13 431.6 1205.73 442.133C1239.2 456.8 1279.73 479.467 1313.73 502.533C1355.2 530.533 1373.07 544.267 1419.2 584.533C1432.4 595.867 1443.47 605.067 1443.73 604.8C1444.67 603.733 1433.33 578.267 1423.2 558.933C1387.07 489.2 1336.4 428.4 1272 377.333C1254.53 363.6 1224.4 342.4 1213.07 336.133C1208.93 333.733 1205.33 331.067 1204.93 330.133C1204.13 328.133 1213.33 326 1248.67 320C1261.87 317.733 1277.47 315.067 1283.33 314C1300.93 310.667 1374.4 300.267 1396 298C1406.93 296.8 1417.33 295.467 1418.93 294.8C1421.47 293.867 1421.07 293.6 1416.53 292.933C1413.73 292.533 1404.4 291.467 1396 290.667C1387.6 289.867 1371.33 288.4 1360 287.333C1348.67 286.267 1334 285.067 1327.33 284.667C1320.8 284.133 1304.53 282.933 1291.33 282C1278.13 280.933 1259.2 280 1249.33 279.733C1239.47 279.6 1228.4 279.067 1224.67 278.533C1221.07 278 1205.73 277.2 1190.67 276.8C1138.93 275.2 1119.73 274.267 1121.6 273.2C1123.73 272 1180.27 256 1234 241.467C1332.93 214.667 1422.53 192.933 1475.73 182.8C1490.93 179.867 1505.73 176.933 1508.67 176.267L1514 175.067L1506.67 174.133C1498.8 173.067 1310.93 174 1305.33 175.067C1303.47 175.467 1291.87 176.133 1279.33 176.667C1205.73 179.467 1107.73 188.933 1031.6 200.667C1003.33 205.067 963.2 212.267 956.667 214C955.2 214.4 953.067 214.133 952 213.467C950.4 212.4 950.667 211.467 954 208C956.267 205.733 961.333 202 965.467 199.733C969.6 197.6 974.667 194 976.8 191.867C980.267 188.267 980.267 188 977.733 188C973.867 188 898.533 201.6 870.667 207.333C841.467 213.333 803.067 222.533 781.467 228.667C772.267 231.2 764.4 233.333 763.867 233.333C762.533 233.333 764.4 227.067 767.333 221.2C773.733 208.8 785.467 199.333 801.467 193.733C806.533 192 824.267 187.867 840.933 184.667C874 178.133 879.2 176.8 876 175.6C869.6 173.2 844.267 166.533 834 164.533C827.467 163.333 821.467 161.867 820.933 161.333C819.467 160.133 829.467 147.067 842.8 132.8C860.667 113.733 887.733 89.4665 919.467 64.1332C956.133 34.9332 991.333 6.79987 995.2 3.7332C997.867 1.46654 997.867 1.3332 995.333 1.46654C993.867 1.46654 979.2 6.1332 962.667 11.8665ZM582.667 351.6C582.533 352.267 572.267 361.333 559.733 372C547.067 382.667 527.6 400.533 516.133 411.6L495.467 432H460.8L426 431.867L432.667 425.867C473.067 389.6 520.4 364.533 569.6 353.467C582.933 350.4 582.667 350.4 582.667 351.6Z" fill="white"/>
</svg>
