<svg width="1707" height="1510" viewBox="0 0 1707 1510" fill="none" xmlns="http://www.w3.org/2000/svg">
<g clip-path="url(#clip0_73_1108)">
<path d="M0.400679 33.4664C1.20068 70.1331 4.40068 88.9331 15.334 122C32.0007 172.4 63.0673 228.933 98.2673 272.666C112.401 290.4 138.134 317.2 152.667 329.333C191.067 361.466 260.934 408.533 274.134 411.333C279.734 412.4 292.801 423.2 298.267 431.2C307.201 444.266 302.934 450 284.001 450C270.534 449.866 259.334 446.533 233.334 434.8C179.334 410.266 120.534 366.266 77.0673 317.733C51.8673 289.733 48.2673 286 47.2007 286.933C42.134 292.133 123.467 389.866 160.001 422.4C196.801 455.333 272.401 503.733 307.067 516.666C314.934 519.6 327.201 532.266 338.534 549.066C350.267 566.666 360.801 579.066 376.134 594C399.601 616.666 423.734 634.666 446.134 646.266C470.267 658.666 526.134 673.2 566.134 677.333C590.667 679.866 592.934 678.666 618.667 649.333C636.401 629.2 647.201 619.333 663.334 608.4C682.001 595.866 705.334 586.666 729.067 582.533C746.267 579.6 750.4 579.466 755.334 581.333C760.134 583.2 758.267 586.266 748.4 592.8C726.534 607.2 692.934 648.933 676.801 681.866C668.267 699.2 666.534 708.666 665.734 743.333C665.067 773.866 666.801 794.8 671.601 814.533C676.267 834 687.334 849.6 711.734 871.466C739.067 895.866 757.334 904.266 790 907.333C795.2 907.866 803.467 909.2 808.4 910.266C819.6 912.666 820.134 915.6 810 918.533C799.734 921.466 743.867 921.333 730.934 918.4C691.201 909.2 637.734 870.133 612.001 831.333C601.467 815.333 596.401 809.333 593.734 809.333C590.801 809.333 591.734 812 601.467 831.333C617.601 862.933 630.001 879.066 670.001 920C707.601 958.533 723.067 978.133 734 1001.73C746.934 1029.73 750.534 1046.13 751.6 1080.8C753.334 1139.87 742.4 1191.07 717.067 1242.67C708.267 1260.8 704 1270.8 704 1273.47C704 1276.53 708.8 1274 715.6 1267.6C722.8 1260.8 741.067 1237.47 748.667 1225.33C767.334 1195.73 782.534 1157.33 788.134 1125.6C790.534 1112.93 791.067 1102.53 791.6 1070C792.4 1027.2 790.934 1001.73 786.934 983.2L784.534 972.4L807.2 971.6C833.2 970.666 842.134 968.8 858.134 961.2C879.734 950.933 907.867 926.4 918.4 908.666C929.334 890.266 933.6 872.533 933.6 846.666C933.6 819.733 928.8 793.466 920.8 776.666C908.8 751.733 877.334 726.533 849.334 719.333C842.934 717.6 837.334 717.2 828 717.733C814 718.4 804.534 721.6 794 729.066C772.667 744 768 775.066 782.667 804C788.667 815.866 799.867 824 802.134 818C802.534 816.933 801.6 812 799.867 807.066C795.734 794.533 796 785.866 800.8 776.266C810.934 756.533 834.8 755.466 852 774.133C858.8 781.466 862.134 788.266 864 798.4C867.467 818.133 857.467 840.266 840.267 850.266C829.067 856.8 809.067 859.2 793.067 855.866C768.667 850.8 746.934 830.8 737.467 804.8C734.534 796.533 734.134 793.2 734.134 778C734 751.866 738 742 754.4 726.4C765.334 716.133 788 700.8 799.334 696.133C806.8 692.933 809.2 692.666 833.467 692.266C863.467 691.733 870.8 692.933 885.334 700.8C909.067 713.866 936.934 740 953.334 764.933C973.067 794.933 975.067 801.733 975.2 842C975.334 875.333 974.667 878.933 964.667 898.933C953.734 920.8 926.934 965.6 922.8 969.066C910.8 979.066 865.6 1003.87 853.867 1006.8C850.667 1007.6 847.467 1009.07 846.667 1010C844.534 1012.53 842.667 1031.73 842.667 1051.33C842.667 1090.13 837.867 1119.33 823.334 1169.73C788.534 1290.93 761.067 1346.67 703.467 1412.67C697.734 1419.2 678.001 1440.27 659.467 1459.33C618.267 1501.87 612.801 1507.87 613.601 1508.8C615.067 1510.13 654.401 1489.33 669.601 1479.07C725.601 1441.6 782.667 1382.27 825.2 1317.33C840.8 1293.6 847.6 1278.13 862.534 1233.73C881.467 1177.33 896.534 1116.67 899.867 1083.2C901.334 1069.47 904.267 1062.4 913.334 1050.93C919.867 1042.67 920.534 1042.93 926.134 1055.07L930 1063.33L929.867 1098C929.734 1135.6 928.4 1150.4 921.334 1185.33C913.6 1223.87 902.267 1258.4 882.4 1304C870.534 1331.33 866.667 1341.47 866.667 1346.27C866.667 1352.93 870.267 1349.33 884.4 1328.67C914.8 1284 937.334 1237.07 958.134 1175.33C972.667 1131.73 974.934 1117.87 976.667 1060C977.6 1027.47 979.2 1010.53 982 1002.67C983.2 999.466 988.134 991.333 993.067 984.799C1008 964.666 1014.8 952.666 1024.53 929.066C1040.4 890.666 1045.73 862.266 1045.73 816C1045.6 762.8 1039.73 730 1021.73 681.466L1018 671.6L996.267 666C940.934 651.6 917.067 638.533 881.867 603.866C867.734 589.866 862.934 583.2 864.534 579.333C865.467 576.666 870.267 576.933 889.334 580.8C898.4 582.666 908 583.066 938 583.066C1002.67 583.2 1024.67 578.266 1055.87 556.933C1068.8 548.133 1094.4 522.533 1104.27 508.666C1125.07 479.2 1136.4 447.333 1134 424.8C1130.8 395.733 1122.27 370.933 1108.13 350C1098.27 335.466 1102.27 334.533 1116.67 348.133C1126.93 357.866 1135.2 369.733 1141.07 382.666C1146.27 394.4 1151.87 411.6 1154 423.066C1160.13 455.733 1151.2 509.333 1131.87 555.866C1122.13 579.333 1121.2 582.666 1125.07 582.666C1130.13 582.666 1139.73 573.333 1148.93 559.6C1161.6 540.533 1174.53 509.066 1188.53 464.133C1197.2 436 1203.2 420.266 1211.6 403.333C1228.93 368.666 1254 342.133 1291.2 319.333C1309.33 308.266 1340 292.8 1352.4 288.8C1375.33 281.066 1423.07 273.333 1448 273.333C1461.87 273.333 1465.47 272.266 1462 269.333C1457.2 265.333 1444.53 263.733 1413.6 263.066C1377.47 262.266 1362.4 263.466 1329.33 270.133C1258.4 284.266 1234.4 295.2 1196.93 330.533L1182.4 344.133L1162.8 324.933C1151.87 314.4 1138.93 302.8 1133.87 298.933C1116.4 285.866 1094.27 275.6 1074 271.2C1061.07 268.533 1033.6 268.133 1022 270.533C982.4 278.8 945.2 302.266 929.467 328.8C921.734 342 914.934 359.333 912.4 372.4C908.667 392.133 913.467 414.266 925.334 432.666C933.867 445.466 943.734 453.333 957.467 457.866C974.667 463.6 984.267 462 1000.8 450.533C1010.93 443.6 1025.6 429.066 1028.13 423.333C1031.2 416.8 1031.6 401.733 1028.8 398C1026.13 394.266 1023.47 396.266 1017.33 406.4C1009.6 419.466 1002 424.266 989.334 424.266C980.8 424.133 972.934 420 968.4 413.066C965.2 408.266 964.667 406.266 964.667 397.466C964.667 384 968.934 374.933 980.267 363.466C989.867 354 995.467 351.466 1012.93 349.333C1025.87 347.733 1039.6 349.466 1046.13 353.466C1062.4 363.466 1075.6 410.266 1069.33 436C1064.67 455.733 1049.33 474 1029.33 483.733C1014.53 490.933 1005.2 493.333 987.334 494.266C953.6 496 925.2 485.333 909.6 465.066C882.8 430.266 880.934 360.666 905.467 314.666C920.8 286 945.2 263.866 980.667 246.266C1009.73 231.866 1034.4 225.333 1060.4 225.333C1091.73 225.333 1115.6 233.866 1150.67 257.6C1171.2 271.6 1177.87 275.066 1181.73 273.866C1183.33 273.466 1197.07 266.533 1212.13 258.533C1244 241.6 1261.73 233.6 1287.47 224.266C1338.8 205.733 1383.2 194.266 1445.73 183.066C1484.93 176.133 1536.13 178.8 1596.8 191.2C1621.73 196.266 1632.27 199.2 1669.2 211.466C1688.13 217.6 1704.13 222.666 1705.07 222.666C1718.4 222.666 1650.53 186.933 1606.27 170.533C1584.27 162.4 1541.47 153.466 1485.6 145.466C1440.8 138.933 1422.93 138 1400 140.533C1346.67 146.8 1269.47 166.4 1218 186.933C1195.47 196 1180.53 201.066 1172.13 202.8C1165.07 204.133 1163.6 204 1160.67 202.133C1156.27 199.2 1156 191.333 1160.27 185.866C1184.67 154.533 1307.33 110.533 1408 97.0664L1431.33 93.9997L1419.33 93.1997C1390 91.0664 1344.27 92.5331 1311.33 96.7997C1262.27 103.066 1211.07 117.066 1158.67 138.666C1101.33 162.4 1096.4 163.866 1086 161.333C1068.53 157.066 1025.47 158.4 990.667 164.133C958.134 169.6 921.734 184.266 882.667 207.733C843.2 231.333 814.667 257.2 793.6 288.266L781.2 306.533L788.4 320.933C798.934 342 802.4 351.6 806.267 369.733C809.2 384 809.467 388.4 809.067 405.333C808.534 422.533 808 426 804.267 437.333C799.334 452 791.334 466.4 786.8 468.4C782.4 470.533 780.534 467.466 779.467 456.533C777.734 439.333 767.467 416.533 749.067 389.2C730.267 360.933 708.134 341.6 675.334 324.533C646.001 309.333 620.267 302.4 592.934 302.533C572.401 302.666 561.734 305.466 541.334 316.133C512.401 331.2 491.601 354 469.467 394.8C461.867 408.533 455.601 416.533 452.934 415.6C449.867 414.533 451.334 392.8 455.334 380.666C466.801 345.6 494.401 307.333 520.667 290C546.534 272.933 577.201 260.933 609.334 255.466C629.201 252 637.334 249.866 637.334 248C637.334 242.533 596.001 243.333 566.134 249.333C548.134 253.066 535.201 257.066 502.934 268.933C468.401 281.6 459.067 283.866 439.334 284.8C416.934 286 354.534 283.2 341.734 280.533C317.201 275.466 274.667 253.733 242.267 229.6C228.534 219.466 204.401 196.133 187.601 176.933C177.467 165.466 172.401 163.2 174.001 170.933C180.001 198.4 238.667 263.066 286.267 294.4C312.134 311.466 333.734 321.333 377.067 335.733C406.134 345.466 413.334 348.933 413.334 353.333C413.334 354.666 411.867 361.866 410.134 369.333C400.934 407.2 403.201 442 417.334 474.8C429.867 504.133 455.601 531.333 486.534 547.733C512.134 561.466 540.001 562.4 572.267 550.666C597.467 541.6 623.067 520.666 632.134 502C636.001 493.733 636.534 491.466 636.534 482C636.534 473.6 635.734 469.6 632.934 462.933C622.401 437.466 600.534 420.266 577.334 418.933C566.001 418.266 558.001 420 552.801 424.133C549.601 426.666 549.334 427.2 551.067 428.933C552.134 430.133 557.467 431.466 563.067 432C584.001 434.4 596.001 446.4 596.001 464.8C596.001 481.733 581.201 494.133 561.201 493.866C548.667 493.866 538.134 488.4 526.267 476.133C500.934 449.866 502.134 419.2 529.734 387.466C559.867 352.666 626.534 370.4 652.534 420C660.934 435.866 666.401 463.866 664.667 481.333C660.667 522.133 640.934 547.333 593.201 572.533C548.134 596.266 504.934 598.133 462.934 578C431.201 562.8 397.601 533.333 377.734 503.066C362.267 479.6 355.467 458.133 352.134 422C350.001 400.266 348.001 388 346.001 384C344.667 381.466 342.134 379.866 335.734 378.133C317.867 372.8 263.601 343.066 222.934 316.4C118.667 247.866 52.2673 167.2 18.8007 68.6664C13.6007 53.3331 2.66734 11.8664 2.66734 7.59976C2.66734 6.39976 2.00068 5.06643 1.20068 4.53309C0.000678723 3.86643 -0.132655 11.4664 0.400679 33.4664Z" fill="white"/>
</g>
<defs>
<clipPath id="clip0_73_1108">
<rect width="1706.67" height="1509.33" fill="white"/>
</clipPath>
</defs>
</svg>
