<svg width="500" height="821" viewBox="0 0 500 821" fill="none" xmlns="http://www.w3.org/2000/svg">
<g clip-path="url(#clip0_94_1482)">
<path d="M234.616 2.24333C241.539 8.01256 249.103 16.4741 251.539 21.1536L254.039 25.8331L249.295 25.4485C220.449 22.8844 184.231 23.5254 159.936 26.9869C151.667 28.1408 136.603 31.1536 135.962 31.7946C135.577 32.1792 135.193 31.9869 147.629 37.4356C153.911 40.1921 158.911 42.5638 158.846 42.6921C158.718 42.7562 154.872 43.4613 150.321 44.2305C120.129 49.2305 95.7696 58.7177 71.4747 75.0638C35.1926 99.4869 6.9234 139.038 1.02596 173.654C-0.384295 182.051 -0.191988 192.948 1.41058 192.948C1.73109 192.948 5.25673 191.089 9.29519 188.782C13.3337 186.474 16.7311 184.615 16.7952 184.615C16.9234 184.615 17.0516 188.589 17.0516 193.461C17.1798 206.154 18.7183 215.513 29.2311 267.628C41.2183 327.179 43.9747 347.948 42.4362 368.077C40.1926 397.243 32.1798 420.641 16.7952 442.628L13.2054 447.756L16.7311 444.872C22.7567 439.936 35.1926 427.5 40.5131 421.154C56.026 402.692 66.9875 380.384 71.4747 358.141C74.167 344.807 74.6798 338.974 74.6157 322.115C74.5516 296.282 71.0901 272.115 61.8593 233.654C59.2311 222.756 58.526 214.295 59.5516 204.936C63.0772 172.628 84.2952 151.025 131.411 131.859C136.154 129.936 140.641 128.205 141.282 127.948C141.923 127.692 142.372 127.436 142.244 127.307C141.154 126.218 115 123.718 104.552 123.718L98.3978 123.654L103.27 119.038C119.359 103.654 146.667 91.7946 177.885 86.6023C182.116 85.8972 188.205 85.128 191.346 84.8715L197.116 84.4869L190.385 90.7049C159.359 119.551 136.667 149.487 118.654 185.256C112.436 197.692 105.385 213.333 105.898 213.782C106.026 213.91 111.346 208.525 117.629 201.731C150.193 166.987 157.052 160.192 169.68 150.513C180.449 142.179 193.718 134.295 205.577 129.231C212.116 126.474 222.436 122.884 222.821 123.269C223.013 123.461 221.539 126.025 219.616 128.974C210.257 143.333 202.885 160.192 196.154 182.692L193.782 190.641L192.116 188.141C191.218 186.731 187.052 180.192 182.885 173.589L175.193 161.666L166.346 174.551C157.116 188.013 140.513 211.41 128.654 227.692C124.872 232.948 121.923 237.179 122.052 237.179C122.18 237.179 126.859 234.615 132.436 231.538C144.488 224.807 152.757 219.679 160.962 213.782C164.231 211.41 167.244 209.359 167.629 209.231C168.718 208.782 172.949 216.41 174.68 221.923C176.09 226.474 177.308 232.756 178.654 242.564L179.167 246.346L187.18 237.756C201.411 222.564 208.398 213.91 214.039 204.551C215.577 202.051 217.052 200.192 217.372 200.448C217.629 200.705 219.423 205.128 221.411 210.256C223.398 215.384 226.218 222.564 227.693 226.282C231.411 235.833 236.667 245.769 240.577 250.577C243.846 254.615 250.064 260.256 251.282 260.256C251.667 260.256 251.923 257.628 251.923 254.231C251.923 242.884 254.039 233.461 257.436 229.615L258.911 227.884L260.577 229.807C264.039 233.846 274.936 248.589 277.693 252.884C287.949 268.91 295 286.923 298.077 304.872C299.423 312.5 300.898 332.307 300.513 337.5L300.321 340.705L295.962 331.987C293.59 327.179 289.359 319.807 286.667 315.641C277.052 300.961 268.334 291.859 247.564 274.872C240.962 269.487 233.205 262.948 230.321 260.448C227.436 257.884 225 255.769 224.872 255.769C224.295 255.769 217.885 264.166 215 268.654C210.834 275 205.834 285.961 202.308 296.025C199.488 304.23 193.526 326.923 192.629 332.884L192.18 335.705L197.885 336.474C200.962 336.923 204.552 337.372 205.834 337.628L208.141 337.948L208.59 331.025C209.488 317.179 211.859 305.769 215.385 298.141C216.988 294.743 222.564 284.615 223.526 283.397C223.911 282.884 228.013 287.179 235.321 295.577C261.988 326.218 266.539 340.513 253.526 353.461C248.975 358.077 244.936 361.089 228.27 372.436C220.321 377.82 212.18 383.461 210.064 385C207.949 386.538 206.026 387.82 205.77 387.82C205 387.82 197.949 377.948 192.116 368.654C182.629 353.461 173.654 333.782 158.911 296.025C153.205 281.346 152.116 279.038 151.218 279.551C148.782 280.833 131.795 298.525 126.154 305.577C119.103 314.423 116.667 317.884 112.18 325.064C95.8337 351.41 85.8337 381.923 80.8337 420.577C77.949 443.013 76.6029 470.256 75.9619 521.795C75.6414 548.846 75.3849 559.807 74.6798 573.718L74.3593 579.807L79.0388 570.192C91.5388 544.679 109.231 517.948 130.77 491.987C147.885 471.41 174.231 445.064 191.218 431.41C193.59 429.551 195.513 427.756 195.513 427.5C195.513 427.243 194.039 425.192 192.244 422.948L188.975 418.91L192.052 422.115C193.718 423.846 197.885 428.205 201.282 431.731C209.231 440.064 214.936 445.384 222.308 451.218C225.577 453.846 228.013 456.154 227.757 456.41C227.5 456.666 224.488 457.948 221.154 459.295C201.026 467.436 167.821 484.936 150.641 496.346C143.975 500.833 138.462 505.064 138.462 505.833C138.462 506.154 141.859 504.679 146.026 502.628C166.859 492.051 188.013 486.218 223.077 481.474C228.526 480.705 238.27 479.423 244.744 478.525L256.475 476.923L263.975 481.987C296.539 503.846 314.616 526.41 311.539 541.282C308.205 557.436 283.975 558.397 263.782 543.269C253.077 535.256 243.846 523.718 237.757 510.577L235.705 506.218L227.308 506.602C218.013 506.987 212.244 508.013 203.205 510.961C185.064 516.923 168.975 527.628 153.782 543.974C134.167 565 120.641 595.32 117.372 625.769C116.475 633.782 116.475 648.269 117.372 656.282C120.577 686.025 132.372 714.872 152.372 741.795C154.68 744.936 156.667 747.436 156.795 747.436C156.923 747.436 163.013 735.32 170.321 720.513C177.564 705.705 183.718 693.59 183.975 693.59C184.167 693.59 187.052 699.872 190.385 707.564C206.026 743.91 217.693 766.731 231.154 786.859C242.5 803.974 251.667 813.59 260.834 818.141C266.154 820.769 272.436 821.025 276.603 818.782C286.154 813.718 293.205 797.372 296.218 773.397C297.308 764.872 297.308 739.231 296.218 731.41C294.039 715.32 291.154 704.743 286.988 697.243C282.18 688.718 276.218 685.961 269.295 689.102C265.641 690.769 259.488 697.115 255.193 703.718C253.334 706.602 251.539 708.974 251.218 708.974C250.898 708.974 249.744 708.141 248.526 707.115C246.09 704.936 243.462 699.936 241.923 694.423C240.705 690 241.026 690.192 232.564 689.359C229.68 689.102 228.205 689.166 228.205 689.615C228.205 691.089 232.949 703.782 235.257 708.333C238.334 714.423 243.718 721.282 248.205 724.743C251.795 727.564 258.334 731.41 259.423 731.41C259.744 731.41 260.834 728.205 261.731 724.359C264.488 712.884 267.757 705.705 270.577 704.807C277.308 702.628 283.27 723.718 284.423 753.525C285.064 770.769 283.205 785.705 279.359 794.231C274.167 805.833 266.988 806.218 256.411 795.513C243.782 782.692 229.488 757.243 210.77 714.423C205.641 702.692 194.872 676.346 194.872 675.577C194.872 674.807 200.705 666.666 205.385 660.897C217.116 646.474 232.564 633.397 248.27 624.743C250.962 623.205 252.436 622.051 252.116 621.602C251.923 621.154 248.013 615.641 243.462 609.231C228.654 588.397 221.667 581.025 214.103 578.141C210.385 576.731 200 575.705 189.744 575.705L184.295 575.641L182.757 579.038C173.27 599.359 169.872 608.333 167.629 618.589C167.052 621.282 166.411 627.948 166.218 633.718C165.77 646.218 166.795 653.013 170.641 664.551L173.27 672.307L166.603 682.948C162.949 688.782 159.744 693.59 159.488 693.59C158.59 693.59 153.975 686.859 151.731 682.372C141.795 662.436 141.731 633.397 151.603 605.256C163.013 572.564 184.744 549.231 209.552 543.013C212.564 542.243 216.346 541.666 218.077 541.666C221.026 541.666 221.411 541.859 226.154 546.282C243.334 562.243 261.09 572.756 278.782 577.372C286.09 579.295 299.167 579.743 305.129 578.269C315.449 575.769 325.513 567.948 329.488 559.551C334.616 548.461 334.936 536.154 330.321 522.436C325.129 506.923 311.667 489.166 294.68 475.384L289.039 470.833L291.154 470.32C292.308 470 296.795 468.654 301.09 467.307C329.872 458.077 345.385 442.884 371.026 399.038C375.834 390.833 375.513 391.282 376.282 392.051C377.693 393.461 379.616 400.641 382.693 415.833C386.539 434.679 387.693 439.166 388.462 437.756C388.782 437.179 389.936 433.205 391.026 428.91C401.154 389.038 395.385 348.846 374.167 311.089C358.975 284.038 340.641 262.756 296.411 220.705C282.629 207.564 277.116 201.41 274.872 196.41C273.59 193.782 273.398 192.179 273.398 186.218C273.398 180.064 273.654 178.525 275.257 174.166C277.757 167.243 282.5 160.256 288.718 154.166C293.59 149.423 299.359 145.32 299.359 146.602C299.359 146.923 297.372 149.807 294.936 153.013C290.577 158.718 288.462 162.115 288.462 163.397C288.462 163.718 291.988 162.372 296.218 160.448C313.141 152.82 328.654 148.846 338.782 149.615C352.564 150.641 360.77 155.705 381.667 176.282L394.552 188.91L386.218 189.359C376.218 189.872 371.731 191.025 367.564 194.166C364.552 196.474 359.039 203.397 358.975 204.936C358.975 205.384 359.488 205.769 360.129 205.769C360.705 205.833 364.423 207.051 368.334 208.589C385.129 215.064 394.872 224.166 402.629 240.705L405.321 246.41L402.821 248.333C397.116 252.82 390.962 259.359 389.359 262.628C387.372 266.602 387.18 270.897 388.654 274.551C390.834 279.743 401.988 288.974 411.539 293.525L414.423 294.936L424.039 291.154L433.654 287.372L433.846 281.923L434.039 276.538L431.282 275.833C426.603 274.551 422.693 271.474 420.77 267.564C419.231 264.423 419.103 263.525 419.423 259.743C419.616 257.372 420.962 251.795 422.372 247.372L425 239.231L427.757 238.846C435.577 237.692 443.141 237.243 445.77 237.756C450.834 238.718 454.936 242.243 458.334 248.654C458.911 249.807 459.103 253.782 459.039 263.525L458.911 276.859L462.308 275.897C477.564 271.41 486.923 263.269 491.539 250.448C492.629 247.564 494.68 239.551 496.154 232.756C497.629 225.897 499.103 219.615 499.423 218.782C500.129 216.859 500.834 216.41 488.141 225.641C482.5 229.743 477.5 233.333 476.988 233.589C476.282 234.038 476.218 233.461 476.603 230.384C477.116 225.897 476.026 212.82 474.616 205.897C471.539 190.833 465.129 176.602 453.526 158.654C448.526 150.961 420.77 112.628 420 112.307C419.616 112.179 414.359 128.269 409.744 143.846L408.782 147.051L406.411 140.32C398.718 118.525 385.898 102.884 364.808 89.551C362.18 87.8844 359.936 86.6664 359.808 86.7305C359.744 86.8587 360.064 91.41 360.577 96.7946C361.09 102.179 361.411 106.731 361.282 106.859C361.154 106.987 357.308 105.256 352.821 103.013C329.231 91.2177 309.552 84.2305 301.154 84.7433L297.757 84.9356L303.205 86.7305C311.988 89.6151 315.962 92.5638 323.398 101.538C327.564 106.602 328.077 107.756 325.834 106.538C325.129 106.154 322.18 105.384 319.231 104.743C312.372 103.397 302.436 103.782 294.872 105.705C285.321 108.205 272.693 114.936 261.282 123.589C257.949 126.154 257.629 126.282 258.013 124.936C258.846 122.179 263.141 114.551 270.834 102.179C281.923 84.4228 285.257 76.8587 286.346 67.1792L286.731 63.5254L291.282 62.5638C304.103 59.8074 329.231 58.269 343.462 59.4228L348.782 59.8074L344.039 64.3587C339.488 68.7818 336.539 72.5638 335.641 75.3844C335.257 76.6664 335.513 76.7305 343.398 77.1151C363.398 78.0767 380.77 82.2433 396.411 89.7433C413.27 97.7562 427.757 108.654 451.154 130.641L460.257 139.231L458.27 134.551C454.552 125.641 446.282 109.295 441.09 100.769C426.218 76.0895 407.757 55.9613 383.846 38.269C372.116 29.4869 350.641 16.3459 350.641 17.8203C350.641 18.2049 352.052 21.7305 353.782 25.769C355.513 29.7433 356.795 33.0767 356.731 33.2049C356.667 33.269 351.859 32.6279 346.09 31.7305C324.295 28.3972 305.962 26.5382 299.167 27.051L295.385 27.3074L284.68 21.3459C262.244 8.71769 248.911 3.14077 233.975 0.320254L231.731 -0.128464L234.616 2.24333ZM444.744 174.615C451.731 184.743 454.039 191.41 454.039 201.282C454.039 208.013 452.693 217.436 451.795 217.179C450.385 216.666 442.693 206.282 440.385 201.666C436.218 193.269 435.834 188.077 438.27 173.846C439.488 166.923 439.488 166.923 444.744 174.615ZM155.77 374.679C166.603 389.936 173.141 398.782 179.68 407.051C183.334 411.731 183.334 411.731 180.257 408.333L176.988 404.807L172.052 407.307C158.782 414.102 137.244 430.256 122.693 444.359L114.295 452.564L113.846 449.166C113.654 447.372 113.462 441.346 113.462 435.833C113.462 411.987 120.385 391.218 136.539 366.795L143.013 356.987L144.167 358.461C144.808 359.295 150 366.538 155.77 374.679ZM334.423 373.205C334.167 379.551 333.654 383.333 332.372 387.82C330.321 395.256 324.936 406.41 320.385 412.5C313.334 422.051 302.372 431.218 291.988 436.41C286.603 439.102 281.154 440.769 271.282 442.884L262.757 444.679L254.936 437.948C250.641 434.231 245.705 429.936 243.911 428.333C239.616 424.487 223.013 408.141 223.205 407.948C225 406.346 260.641 388.333 270.193 384.295C286.154 377.5 303.526 371.666 319.231 367.948C323.975 366.795 328.782 365.641 329.808 365.384C330.898 365.064 332.436 364.807 333.27 364.807L334.808 364.743L334.423 373.205ZM213.782 397.436C214.423 398.141 214.808 398.718 214.616 398.718C214.423 398.718 213.782 398.141 213.141 397.436C212.5 396.731 212.116 396.154 212.308 396.154C212.5 396.154 213.141 396.731 213.782 397.436ZM184.936 413.461C185.577 414.166 185.962 414.743 185.77 414.743C185.577 414.743 184.936 414.166 184.295 413.461C183.654 412.756 183.27 412.179 183.462 412.179C183.654 412.179 184.295 412.756 184.936 413.461ZM187.821 416.987C188.654 417.884 189.167 418.589 188.975 418.589C188.846 418.589 188.013 417.884 187.18 416.987C186.346 416.089 185.834 415.384 186.026 415.384C186.154 415.384 186.988 416.089 187.821 416.987ZM208.782 600.577C213.27 602.692 218.462 606.41 221.795 609.872L223.975 612.179L222.5 613.269C215.129 618.397 201.795 632.82 190.705 647.692L186.923 652.756L186.154 650.897C183.654 644.807 182.564 631.154 183.975 623.782C184.936 618.589 188.077 611.538 192.372 604.551C195.064 600.256 196.859 598.077 197.693 597.948C200.064 597.564 204.68 598.654 208.782 600.577Z" fill="white"/>
</g>
<defs>
<clipPath id="clip0_94_1482">
<rect width="500" height="820.513" fill="white"/>
</clipPath>
</defs>
</svg>
